<svg width="32" height="32" viewBox="0 0 32 32" fill="none" xmlns="http://www.w3.org/2000/svg">
<path d="M12.0185 0.695192L6.14286 1.14286L5 28.5714L21.1429 32V0L14.9988 0.468116C14.9901 0.999947 14.3563 1.45649 13.5524 1.49862C12.7846 1.53886 12.1315 1.18691 12.0185 0.695192Z" fill="white"/>
<path fill-rule="evenodd" clip-rule="evenodd" d="M27.8543 1.14286L23.14 0V32L28.8543 28.5714L27.8543 1.14286ZM25.7497 24.5384L25.4104 3.04773L25.9124 3.16923L26.2489 24.4864L27.6194 26.3137L27.1885 26.5725L26.1023 25.1242L25.3777 27.6602L24.75 28.0373L25.7497 24.5384Z" fill="white"/>
<path d="M11.559 19.9987C12.2407 19.3252 12.3701 18.3519 12.3701 17.3361V10.2856H7.99202V12.5441H9.07853V16.9677C9.07853 18.0426 8.7363 18.2887 8.31477 18.356C8.26052 18.3643 8.20209 18.3684 8.14366 18.3684C7.80699 18.3684 7.42859 18.2488 7.42859 18.2488V20.3355C7.42859 20.3355 8.48032 20.7616 9.43746 20.7616C10.5323 20.7616 11.0151 20.5389 11.5604 19.9987H11.559Z" fill="#E4002B"/>
<path fill-rule="evenodd" clip-rule="evenodd" d="M18.6345 20.4812C18.6035 20.4812 18.5869 20.4613 18.5869 20.4307V20.3986C18.5869 20.3787 18.5747 20.3602 18.548 20.3602H18.4918V20.4798H18.4046V20.17H18.566C18.6374 20.17 18.6698 20.2085 18.6698 20.2576V20.2612C18.6698 20.2932 18.6575 20.3203 18.6172 20.3303C18.6611 20.3352 18.6698 20.3659 18.6698 20.3993V20.4278C18.6698 20.4413 18.6763 20.4513 18.6936 20.4584V20.4819H18.6338L18.6345 20.4812ZM18.5833 20.264C18.5833 20.2441 18.5696 20.232 18.5444 20.232H18.4918V20.306H18.543C18.5682 20.306 18.584 20.2975 18.584 20.2726L18.5833 20.264Z" fill="#E4002B"/>
<path fill-rule="evenodd" clip-rule="evenodd" d="M18.5372 20.6393C18.3534 20.6393 18.2172 20.4997 18.2172 20.3231C18.2172 20.1465 18.3534 20.007 18.5372 20.007C18.721 20.007 18.8572 20.148 18.8572 20.3231C18.8572 20.4983 18.721 20.6393 18.5372 20.6393ZM18.5372 20.0554C18.3808 20.0554 18.2698 20.1729 18.2698 20.3231C18.2698 20.4734 18.3808 20.5909 18.5372 20.5909C18.6936 20.5909 18.8031 20.4713 18.8031 20.3231C18.8031 20.175 18.6957 20.0554 18.5372 20.0554Z" fill="#E4002B"/>
<path d="M18.5205 17.3361C18.5205 18.352 18.3911 19.3252 17.7094 19.9988H17.7108C17.1655 20.539 16.6828 20.7617 15.5879 20.7617C14.6308 20.7617 13.579 20.3356 13.579 20.3356V18.2489C13.579 18.2489 13.9574 18.3685 14.2941 18.3685C14.3525 18.3685 14.411 18.3644 14.4652 18.3561C14.8867 18.2888 15.229 18.0427 15.229 16.9677V12.5442H14.1425V10.2857H18.5205V17.3361Z" fill="#E4002B"/>
</svg>
