<svg width="56" height="57" viewBox="0 0 56 57" fill="none" xmlns="http://www.w3.org/2000/svg">
<path d="M10.1787 18.3232L9.01557 14.7534C8.92895 14.4874 9.02175 14.1904 9.25067 14.0234L12.2637 11.8394L12.0162 11.1032H8.30408C8.01948 11.1032 7.772 10.9237 7.68539 10.6515L6.53463 7.125H5.76127L4.61052 10.6515C4.5239 10.9176 4.27642 11.1032 3.99183 11.1032H0.25496L0.0136719 11.8208L3.04524 14.0234C3.27415 14.1904 3.36695 14.4812 3.28034 14.7534L2.12958 18.3047L2.74827 18.7563L5.76746 16.56C5.99637 16.3929 6.30572 16.3929 6.53463 16.56L9.57857 18.7687L10.1787 18.3232Z" fill="#E4002B"/>
<path d="M52.015 56.4983L50.8519 52.9285C50.7653 52.6624 50.8581 52.3655 51.087 52.1984L54.1 50.0144L53.8525 49.2782H50.1404C49.8558 49.2782 49.6083 49.0988 49.5217 48.8266L48.3709 45.3H47.5976L46.4468 48.8266C46.3602 49.0926 46.1127 49.2782 45.8281 49.2782H42.0913L41.85 49.9959L44.8815 52.1984C45.1105 52.3655 45.2033 52.6562 45.1166 52.9285L43.9659 56.4797L44.5846 56.9314L47.6038 54.735C47.8327 54.568 48.142 54.568 48.3709 54.735L51.4149 56.9437L52.015 56.4983Z" fill="#E4002B"/>
<path fill-rule="evenodd" clip-rule="evenodd" d="M52 15H36.1678C39.4104 14.3401 42.0231 13.1762 43.8035 11.6954C45.2265 10.5119 46.178 9.07058 46.387 7.47404C46.5992 5.85355 46.023 4.25288 44.7433 2.831C43.3682 1.30312 41.5897 0.768435 39.7667 1.00094C37.9879 1.22781 36.2032 2.17383 34.6402 3.52425C32.521 5.35521 30.6789 8.043 29.715 11.0918C28.751 8.043 26.9089 5.35521 24.7897 3.52425C23.2267 2.17383 21.4421 1.22781 19.6632 1.00094C17.8402 0.768435 16.0617 1.30312 14.6866 2.831C13.4069 4.25288 12.8307 5.85355 13.0429 7.47404C13.2519 9.07058 14.2034 10.5119 15.6264 11.6954C17.4068 13.1762 20.0195 14.3401 23.2621 15H11.3111L11.2207 15.0655L11.851 17H29V24H9V20.8199L7 19.3687V26H10V53H42.307L39.5542 51H31V26H47V43.5H49V26H52V15ZM31.1694 13.5767C36.445 13.3684 40.3648 11.9541 42.5246 10.1577C43.6876 9.19042 44.279 8.16842 44.404 7.21437C44.5258 6.28427 44.227 5.24705 43.2567 4.16893C42.3571 3.16934 41.2482 2.82818 40.0197 2.98487C38.747 3.14718 37.3161 3.85539 35.9477 5.03762C33.6537 7.01969 31.7351 10.1607 31.1694 13.5767ZM31 17V24H50V17H31ZM29 26H12V51H29V26ZM16.9053 10.1577C19.0651 11.9541 22.985 13.3684 28.2605 13.5767C27.6948 10.1607 25.7762 7.01969 23.4822 5.03762C22.1138 3.85539 20.6829 3.14718 19.4102 2.98487C18.1817 2.82818 17.0728 3.16934 16.1732 4.16893C15.2029 5.24705 14.9041 6.28427 15.0259 7.21437C15.1509 8.16842 15.7423 9.19042 16.9053 10.1577Z" fill="black"/>
</svg>
