<svg width="120" height="120" viewBox="0 0 120 120" fill="none" xmlns="http://www.w3.org/2000/svg">
<path d="M60 3.39394H60.2424C75.3938 3.45455 89.5755 9.39394 100.242 20.1818C110.909 30.9091 116.727 45.1515 116.666 60.303C116.606 75.3939 110.666 89.5758 99.9997 100.182C89.3331 110.848 75.1514 116.667 60.0606 116.667H59.8182C44.6668 116.606 30.4851 110.667 19.8185 99.8788C9.15189 89.1515 3.33375 74.8485 3.39436 59.7576C3.45496 44.6667 9.39431 30.4848 20.0609 19.8788C30.7275 9.21212 44.9092 3.39394 60 3.39394ZM60 0C44.0001 0 28.9699 6.18182 17.6973 17.4545C6.36403 28.7273 0.0610471 43.7576 0.000441435 59.7576C-0.0601642 75.7576 6.12161 90.8485 17.3943 102.242C28.6669 113.636 43.6971 119.939 59.7576 120H60C75.9999 120 91.0301 113.818 102.303 102.545C113.636 91.2727 119.878 76.2424 120 60.303C120.06 44.303 113.878 29.2121 102.606 17.8182C91.3331 6.36364 76.3029 0.0606061 60.2424 0H60Z" fill="white"/>
<path d="M102.5 114C101.023 114 100 112.864 100 111.5C100 110.08 101.08 109 102.5 109C103.92 109 105 110.136 105 111.5C105 112.92 103.92 114 102.5 114ZM102.5 109.341C101.25 109.341 100.398 110.307 100.398 111.5C100.398 112.693 101.25 113.659 102.5 113.659C103.75 113.659 104.602 112.693 104.602 111.5C104.545 110.307 103.75 109.341 102.5 109.341ZM103.239 112.75C103.011 112.75 102.841 112.58 102.841 112.352V112.125C102.841 111.955 102.727 111.841 102.557 111.841H102.102V112.807H101.42V110.364H102.67C103.239 110.364 103.466 110.648 103.466 111.045C103.466 111.273 103.352 111.5 103.068 111.614C103.409 111.67 103.466 111.898 103.466 112.182V112.409C103.466 112.523 103.523 112.58 103.636 112.636V112.807H103.239V112.75ZM102.841 110.989C102.841 110.818 102.727 110.761 102.557 110.761H102.159V111.33H102.557C102.784 111.33 102.898 111.273 102.898 111.045V110.989H102.841Z" fill="white"/>
<path d="M56.3706 13.9875C56.3563 13.909 56.3419 13.8313 56.3277 13.7542C56.2218 13.1806 56.1215 12.6371 56.0681 12C54.6769 12.1205 53.8301 12.2409 52.7412 12.4216C52.7816 12.6424 52.8219 12.8565 52.8622 13.0707C52.9429 13.499 53.0235 13.9272 53.1042 14.409C53.2192 14.409 53.3829 14.3848 53.5027 14.3671C53.5719 14.3569 53.6264 14.3488 53.6486 14.3488L52.8017 16.3363C52.8017 16.3363 51.471 14.7102 51.471 14.6499C51.5771 14.6235 51.6599 14.6087 51.7348 14.5953C51.8306 14.5781 51.9135 14.5633 52.0154 14.5295C51.9496 14.1691 51.9017 13.8265 51.8522 13.4727C51.8107 13.1761 51.7681 12.8716 51.7129 12.542C50.2007 12.7829 48.6885 13.0841 47.2367 13.5056C47.2511 13.5841 47.2654 13.6618 47.2796 13.7389C47.3855 14.3125 47.4859 14.856 47.5392 15.4931C47.7206 15.4329 48.0836 15.3726 48.0836 15.3726L50.8661 18.0226L51.108 19.5282C51.108 19.5282 50.6241 19.6487 50.3822 19.6487L50.7451 21.6361C52.3178 21.2748 53.8905 21.0339 55.5238 20.8532C55.4028 20.1908 55.2818 19.5282 55.2213 18.8657C54.9794 18.8657 54.4954 18.926 54.4954 18.926L54.2535 17.4203C54.2535 17.4203 55.9472 14.0477 56.0077 14.0477C56.1286 13.9875 56.1891 13.9875 56.3706 13.9875Z" fill="white"/>
<path fill-rule="evenodd" clip-rule="evenodd" d="M77.0579 14.7704C73.9729 13.6261 71.4929 15.192 70.646 17.5408C69.8597 19.7089 70.7065 22.2986 73.8519 23.4429C76.9369 24.5872 79.296 23.202 80.1428 21.0339C80.9897 18.7453 80.2033 15.9147 77.0579 14.7704ZM74.5173 21.5157C73.5495 21.1544 73.731 20.1907 74.2754 18.6851C74.8803 17.1192 75.3642 16.3363 76.332 16.6374C77.2998 16.9988 77.1184 17.9624 76.574 19.5283C76.0295 21.0339 75.4851 21.8771 74.5173 21.5157Z" fill="white"/>
<path d="M97.7452 49.34C98.2291 50.9059 99.6204 51.7491 101.072 51.2672C101.858 51.0263 102.463 50.3639 102.705 49.9423C103.129 49.0991 103.31 48.0753 103.371 47.2321C103.431 46.6901 103.492 46.2685 103.552 46.0878C103.613 45.9674 103.734 45.8469 103.915 45.7867C104.278 45.6662 104.58 45.8469 104.701 46.2685C104.883 46.8707 104.701 47.3526 104.157 47.7741L104.097 47.8344C104.187 48.1355 104.278 48.4517 104.369 48.7679C104.459 49.0841 104.55 49.4002 104.641 49.7014C105.034 49.5809 105.427 49.4454 105.82 49.3099C106.214 49.1744 106.607 49.0389 107 48.9184C106.909 48.6173 106.819 48.3011 106.728 47.9849C106.637 47.6687 106.546 47.3526 106.456 47.0514C106.365 47.0815 106.289 47.1117 106.214 47.1418C106.138 47.1719 106.062 47.202 105.972 47.2321H105.911C105.911 47.2321 105.911 47.1719 105.972 47.1719C106.214 46.5696 106.214 45.7867 105.972 45.064C105.427 43.4981 103.976 42.8356 102.463 43.3174C101.798 43.5583 101.314 43.9799 101.012 44.6424C100.709 45.3049 100.649 46.0878 100.649 46.8105C100.635 46.9314 100.625 47.0492 100.615 47.1634C100.579 47.5614 100.548 47.9149 100.407 48.1957C100.286 48.4366 100.165 48.4968 99.9833 48.5571C99.6204 48.6775 99.3179 48.4968 99.1364 48.015C98.8945 47.3526 99.1364 46.8105 99.8018 46.3287C99.6808 46.0276 99.575 45.7265 99.4691 45.4254C99.3633 45.1242 99.2574 44.8231 99.1364 44.5219C98.9535 44.5827 98.773 44.6434 98.594 44.7036L98.593 44.7039C97.8846 44.9422 97.1989 45.1729 96.4749 45.3651C96.5555 45.5656 96.6427 45.7661 96.73 45.9667C96.9048 46.3682 97.0798 46.7704 97.2008 47.1719C97.2701 47.1489 97.3218 47.1347 97.3659 47.1225C97.4373 47.1029 97.489 47.0886 97.5637 47.0514H97.6242V47.1117C97.5032 47.8344 97.5637 48.6775 97.7452 49.34Z" fill="white"/>
<path d="M104.097 40.547C103.25 40.9686 102.403 41.3902 101.556 41.7516C100.225 42.3538 99.1969 41.7516 98.2895 40.1857C98.2426 39.9989 98.1594 39.8483 98.0962 39.734C98.0778 39.7008 98.0612 39.6707 98.0476 39.6436C98.471 39.463 98.8339 39.2823 99.1969 39.1016C99.4993 39.5232 99.6808 39.7641 99.9832 39.8845L100.01 39.8913C100.239 39.9488 100.427 39.996 100.951 39.7641C100.951 39.7039 101.012 39.7039 101.012 39.7039C101.012 39.7039 100.588 38.9209 100.407 38.4994C100.77 38.3187 101.133 38.153 101.495 37.9874C101.858 37.8218 102.221 37.6562 102.584 37.4755C103.129 38.4391 103.613 39.463 104.097 40.547Z" fill="white"/>
<path d="M73.6101 100.171C73.5799 100.11 73.5648 100.035 73.5496 99.9598C73.5345 99.8846 73.5194 99.8093 73.4891 99.749C73.8677 99.6548 74.2093 99.5237 74.5717 99.3846C74.6726 99.3459 74.775 99.3066 74.8804 99.2672C74.9871 99.6921 75.1147 100.117 75.2386 100.53L75.2392 100.532C75.3258 100.82 75.4107 101.103 75.4853 101.375C75.0014 101.556 74.5175 101.736 74.094 101.857C73.7311 101.375 73.3077 101.194 72.8843 101.315C72.2189 101.496 72.0979 102.158 72.4003 103.182C72.7028 104.326 73.1867 104.748 73.8521 104.567C74.457 104.386 74.6384 103.905 74.578 102.941H76.2112C76.2716 104.567 75.4853 105.531 73.9731 106.013C71.9164 106.615 70.4042 105.531 69.8598 103.784C69.3759 102.098 70.2832 100.592 71.9164 100.171C72.4608 99.9899 73.0657 99.9899 73.6101 100.171Z" fill="white"/>
<path d="M92.7246 86.5897C92.7851 86.6499 92.8456 86.7101 92.9061 86.7402C92.4826 86.8607 91.9987 87.1016 91.6963 87.5232C90.9099 88.3663 90.9099 89.3902 91.6963 90.1129C92.4222 90.7754 93.3295 90.6549 94.3578 90.2333C94.4183 90.2032 94.4939 90.1731 94.5695 90.143C94.6451 90.1129 94.7207 90.0828 94.7812 90.0527C95.3256 89.8117 95.6281 89.7515 95.8095 89.9322C96.0515 90.0527 95.991 90.2936 95.8095 90.5345C95.4466 90.8958 95.0837 90.956 94.5393 90.7151L93.5714 91.6788C93.8132 91.8893 94.07 92.1149 94.3268 92.3405L94.3277 92.3414C94.5847 92.5672 94.8418 92.793 95.0837 93.0037C95.2349 92.8231 95.3861 92.6574 95.5373 92.4918C95.6885 92.3263 95.8399 92.1605 95.991 91.9799C95.9482 91.9372 95.9129 91.8945 95.8798 91.8546C95.8196 91.7817 95.7667 91.7177 95.6886 91.6788C96.1725 91.5583 96.7169 91.2572 97.0193 90.8958C97.8057 90.0527 97.6847 88.7879 96.8984 88.1254C96.1725 87.5232 95.3256 87.5834 94.4183 88.005C94.3276 88.0351 94.2519 88.0652 94.1763 88.0953C94.1007 88.1254 94.0251 88.1555 93.9344 88.1857C93.894 88.2039 93.855 88.2217 93.8173 88.239L93.7354 88.2766C93.2058 88.5202 92.941 88.642 92.7246 88.4266C92.5431 88.2459 92.5431 88.005 92.7246 87.8243C93.0875 87.4629 93.4505 87.4629 93.8739 87.6436C94.0251 87.4629 94.1612 87.2822 94.2973 87.1016C94.4334 86.9209 94.5695 86.7402 94.7207 86.5596C94.509 86.3789 94.2822 86.1681 94.0554 85.9573C93.8286 85.7466 93.6016 85.5356 93.39 85.355C93.148 85.7164 92.8456 86.0778 92.5431 86.4391C92.6036 86.4692 92.6641 86.5294 92.7246 86.5897Z" fill="white"/>
<path d="M27.9407 88.005C28.0617 87.9448 28.1827 87.8243 28.3037 87.7039C28.4548 87.8845 28.6059 88.05 28.7571 88.2155C28.9083 88.3811 29.0598 88.547 29.211 88.7277C28.9996 88.9082 28.758 89.1036 28.5164 89.2991L28.5155 89.2998C28.2735 89.4956 28.0315 89.6913 27.8198 89.872C27.6685 89.6913 27.5173 89.5257 27.3661 89.3601C27.2149 89.1945 27.0636 89.0288 26.9124 88.8482C27.1544 88.4868 27.2149 88.0652 26.9124 87.7039C26.731 87.463 26.489 87.463 26.368 87.5834C26.1236 87.7781 26.1952 88.0121 26.3275 88.4443C26.3589 88.547 26.3937 88.6608 26.4285 88.7879C26.4588 88.8783 26.4739 88.9536 26.489 89.0288C26.5041 89.1041 26.5192 89.1794 26.5495 89.2698C26.7914 90.2334 26.7914 91.0765 26.0051 91.6788C25.2187 92.3413 23.9485 92.2208 23.2226 91.3777C22.9201 91.0163 22.6782 90.414 22.6782 89.9322C22.5572 89.9925 22.4362 90.1129 22.3757 90.1731C22.0733 89.8118 21.7709 89.4504 21.5289 89.0891C21.7708 88.8783 22.043 88.6675 22.3152 88.4567C22.5874 88.2459 22.8597 88.0351 23.1016 87.8243C23.2389 88.0294 23.3958 88.2346 23.561 88.4507C23.6869 88.6153 23.8177 88.7864 23.9485 88.9686C23.646 89.4504 23.646 89.872 23.888 90.2334C24.0694 90.4743 24.3114 90.5345 24.4929 90.3538C24.6743 90.1731 24.6743 89.9322 24.5533 89.33C24.5231 89.2698 24.508 89.1945 24.4929 89.1192C24.4777 89.0439 24.4626 88.9686 24.4324 88.9084C24.1299 87.8243 24.2509 86.9209 24.9768 86.3187C25.8236 85.6562 26.8519 85.8369 27.5173 86.7403C27.7593 87.1016 27.9407 87.5834 27.9407 88.005Z" fill="white"/>
<path fill-rule="evenodd" clip-rule="evenodd" d="M30.3 91.9799L31.2073 90.8959C32.2356 91.8595 33.3849 92.8231 34.5342 93.6663L33.6269 94.7503C33.5059 94.6901 33.3244 94.5696 33.2035 94.4492C33.022 94.9611 32.8254 95.5032 32.6288 96.0453C32.4322 96.5873 32.2356 97.1293 32.0542 97.6412C32.1146 97.6713 32.1751 97.7164 32.2356 97.7616C32.2961 97.8068 32.3566 97.852 32.4171 97.8821C32.2659 98.0627 32.1298 98.2284 31.9937 98.394C31.8576 98.5596 31.7215 98.7252 31.5702 98.9059C30.7234 98.3036 29.937 97.7014 29.1507 97.0389C29.2717 96.8582 29.8161 96.1957 29.937 96.0753C30.058 96.1957 30.3605 96.4366 30.3605 96.4366L30.6629 95.7139L29.3321 94.6299L28.6668 94.9912L29.0297 95.3526L28.2433 96.3162C27.6989 95.8344 27.0941 95.2924 26.5497 94.7503C26.7008 94.5697 26.8369 94.4041 26.973 94.2385C27.1091 94.0729 27.2452 93.9072 27.3965 93.7265L27.6989 94.0276C28.4684 93.568 29.3683 93.065 30.2143 92.5922L30.6629 92.3413L30.3 91.9799ZM29.9975 94.1481L30.9654 94.931L31.6912 93.2447L31.6307 93.1845L29.9975 94.1481Z" fill="white"/>
<path d="M39.5245 98.6348C39.6001 99.2672 39.6757 99.8996 39.7362 100.532C39.9781 100.05 40.2806 99.5081 40.583 99.0263C40.4565 98.9843 40.33 98.9131 40.224 98.8533C40.1779 98.8274 40.1357 98.8036 40.0991 98.7854C40.2201 98.5746 40.326 98.3638 40.4318 98.153C40.5377 97.9422 40.6435 97.7315 40.7645 97.5207C41.3982 97.8361 41.9858 98.1057 42.648 98.4095L42.9421 98.5445C42.7001 98.9661 42.4582 99.3877 42.2767 99.8093C42.186 99.7792 42.1104 99.749 42.0348 99.7189C41.9592 99.6888 41.8835 99.6587 41.7928 99.6286C41.1427 100.869 40.4927 102.013 39.7991 103.233L39.5547 103.664C39.3235 103.549 39.0834 103.442 38.848 103.338C38.4676 103.17 38.0994 103.007 37.8005 102.821C37.7042 102.053 37.6249 101.302 37.5445 100.542C37.4735 99.8703 37.4017 99.1901 37.3166 98.4843C37.1352 98.7853 36.9538 99.1164 36.7724 99.4476C36.5909 99.7788 36.4093 100.11 36.2278 100.412C36.4093 100.532 36.5303 100.592 36.7117 100.652C36.5907 100.863 36.4849 101.059 36.379 101.255C36.2732 101.45 36.1673 101.646 36.0463 101.857L33.8687 100.592C34.0013 100.355 34.099 100.175 34.1873 100.013L34.1879 100.011C34.3008 99.8037 34.3985 99.6239 34.5341 99.3877C34.6551 99.5081 34.8366 99.6286 35.018 99.6888C35.26 99.2371 35.5322 98.7553 35.8044 98.2735C36.0766 97.7917 36.3488 97.3099 36.5907 96.8582C36.5175 96.7852 36.422 96.7344 36.3179 96.6789C36.25 96.6427 36.1784 96.6046 36.1068 96.5571C36.3488 96.1355 36.5908 95.7139 36.7722 95.2923C37.1881 95.5132 37.5786 95.7467 37.9612 95.9755C38.4132 96.2457 38.8541 96.5094 39.3128 96.7377C39.3732 97.3701 39.4489 98.0025 39.5245 98.6348Z" fill="white"/>
<path fill-rule="evenodd" clip-rule="evenodd" d="M50.3823 104.146C51.0477 102.098 49.5959 100.893 48.0232 100.412C47.6186 100.277 47.214 100.151 46.8062 100.024L46.8053 100.024C46.1163 99.8096 45.4179 99.5922 44.6963 99.3275C44.6448 99.5071 44.5822 99.6868 44.5181 99.8711C44.4316 100.119 44.3423 100.376 44.2729 100.652C44.3334 100.683 44.409 100.713 44.4846 100.743C44.5602 100.773 44.6358 100.803 44.6963 100.833C44.5749 101.22 44.4438 101.616 44.3108 102.018C44.1123 102.618 43.9095 103.232 43.7285 103.844C43.668 103.814 43.5924 103.784 43.5168 103.754C43.4412 103.724 43.3655 103.694 43.3051 103.664C43.2446 103.905 43.169 104.115 43.0933 104.326C43.0177 104.537 42.9421 104.748 42.8816 104.989C43.9704 105.41 45.1197 105.772 46.269 106.133C48.3257 106.735 49.7774 105.952 50.3823 104.146ZM47.1764 101.616C47.2369 101.631 47.2973 101.646 47.3578 101.676C48.0837 101.917 48.3861 102.399 48.0232 103.603C47.6603 104.748 47.1159 104.989 46.39 104.748C46.3295 104.718 46.269 104.703 46.2085 104.688C46.148 104.673 46.0876 104.657 46.0271 104.627C46.1783 104.115 46.3446 103.604 46.511 103.092C46.6773 102.58 46.8437 102.068 46.9949 101.556C47.0554 101.586 47.1159 101.601 47.1764 101.616Z" fill="white"/>
<path d="M55.4028 101.797C55.3726 102.038 55.3575 102.263 55.3423 102.489C55.3272 102.715 55.3121 102.941 55.2818 103.182C55.2214 103.182 55.1457 103.167 55.0701 103.152C54.9945 103.137 54.9189 103.122 54.8584 103.122C54.9492 103.573 55.0399 104.01 55.1306 104.447C55.2213 104.883 55.3121 105.32 55.4028 105.772C55.4873 105.575 55.5719 105.382 55.6556 105.191C55.9314 104.561 56.1992 103.949 56.4311 103.302C56.3102 103.302 56.1287 103.302 56.0077 103.242C56.038 103.001 56.0531 102.775 56.0682 102.55C56.0833 102.324 56.0984 102.098 56.1287 101.857C56.5517 101.887 56.9898 101.917 57.4279 101.947C57.8666 101.977 58.3062 102.008 58.7297 102.038C58.6995 102.279 58.6844 102.504 58.6692 102.73C58.6541 102.956 58.639 103.182 58.6087 103.423H58.1248C58.2458 103.844 58.3668 104.281 58.4878 104.718C58.6088 105.154 58.7297 105.591 58.8507 106.013C59.1531 105.169 59.4556 104.326 59.758 103.423H59.3346C59.3649 103.182 59.38 102.956 59.3951 102.73C59.4102 102.504 59.4253 102.279 59.4556 102.038C59.9253 102.038 60.3465 102.021 60.7525 102.006C61.1306 101.991 61.496 101.977 61.8752 101.977C61.8449 102.218 61.8298 102.444 61.8147 102.67C61.7995 102.896 61.7844 103.122 61.7542 103.363H61.3912C60.9626 104.371 60.5088 105.38 60.0622 106.373L60.0591 106.38C59.8136 106.926 59.5703 107.467 59.3346 108C58.7298 108 58.0643 108 57.4594 107.94C57.3385 107.548 57.2326 107.157 57.1268 106.765C57.0209 106.374 56.9151 105.982 56.7941 105.591C56.6429 105.952 56.4765 106.329 56.3102 106.705C56.1438 107.082 55.9775 107.458 55.8262 107.819C55.223 107.759 54.5597 107.699 53.8961 107.639L53.8906 107.639C53.6487 106.826 53.4219 106.013 53.1951 105.2C52.9683 104.387 52.7413 103.573 52.4993 102.76C52.4389 102.76 52.3784 102.745 52.3179 102.73C52.2574 102.715 52.1969 102.7 52.1364 102.7C52.1667 102.459 52.1818 102.233 52.1969 102.008C52.212 101.782 52.2271 101.556 52.2574 101.315C53.3462 101.556 54.2535 101.676 55.4028 101.797Z" fill="white"/>
<path d="M67.3494 102.068C67.3192 101.842 67.289 101.616 67.2587 101.375C66.1094 101.616 65.0206 101.737 63.8108 101.797C63.8411 102.038 63.8713 102.263 63.9016 102.489C63.9318 102.715 63.9621 102.941 63.9923 103.182C64.0831 103.182 64.1738 103.167 64.2645 103.152C64.3552 103.137 64.446 103.122 64.5367 103.122C64.5972 103.634 64.6728 104.176 64.7484 104.718L64.7486 104.719C64.8241 105.26 64.8997 105.802 64.9601 106.314C64.8694 106.314 64.7787 106.329 64.6879 106.344C64.5972 106.359 64.5065 106.374 64.4157 106.374C64.446 106.615 64.4762 106.841 64.5065 107.066C64.5367 107.292 64.567 107.518 64.5972 107.759C65.7464 107.639 66.8955 107.458 68.0447 107.277C68.0145 107.037 67.9847 106.811 67.9545 106.586L67.9544 106.585C67.9241 106.359 67.8939 106.133 67.8636 105.892C67.7729 105.922 67.6822 105.937 67.5914 105.952C67.5007 105.967 67.41 105.982 67.3192 106.013C67.2587 105.501 67.1831 104.959 67.1075 104.417C67.0319 103.875 66.9563 103.333 66.8958 102.821C67.0773 102.821 67.2587 102.821 67.4402 102.76C67.41 102.52 67.3797 102.293 67.3494 102.068Z" fill="white"/>
<path d="M89.7606 91.0765C89.9572 91.3174 90.1538 91.5583 90.3656 91.7992C90.1841 91.9799 89.9875 92.1606 89.7909 92.3413C89.5943 92.5219 89.3977 92.7026 89.2163 92.8833C89.0953 92.7629 88.9743 92.6424 88.9138 92.5219C88.6114 92.8231 88.2484 93.1242 87.8855 93.4253C88.067 93.6662 88.3089 93.9674 88.5509 94.2083C88.8533 93.9674 89.1558 93.7265 89.4582 93.4253C89.5425 93.5303 89.6342 93.6352 89.7281 93.7427C89.9036 93.9436 90.0869 94.1535 90.2446 94.389C90.0934 94.5094 89.9423 94.6448 89.7911 94.7803C89.6399 94.9158 89.4885 95.0514 89.3372 95.1719C89.428 95.2923 89.5338 95.4128 89.6397 95.5332C89.7455 95.6537 89.8514 95.7742 89.9421 95.8946C90.1236 95.744 90.29 95.5935 90.4563 95.4429C90.6227 95.2923 90.789 95.1418 90.9705 94.9912C90.91 94.931 90.8646 94.8708 90.8192 94.8105C90.7739 94.7503 90.7285 94.6901 90.668 94.6299C91.0914 94.2685 91.4544 93.9071 91.8173 93.5458C92.0289 93.7866 92.2254 94.0274 92.4219 94.2682C92.6184 94.509 92.8155 94.7504 93.0271 94.9912C91.6358 96.3162 90.1841 97.5207 88.6114 98.665L87.704 97.5809C87.7645 97.5207 87.825 97.4756 87.8854 97.4304C87.9459 97.3853 88.0065 97.34 88.067 97.2798C87.7343 96.8884 87.3865 96.4668 87.0388 96.0453C86.6909 95.6237 86.3431 95.202 86.0103 94.8105C85.9499 94.8708 85.8894 94.9159 85.8289 94.9611C85.7684 95.0063 85.7079 95.0515 85.6474 95.1117L84.7401 94.0276C86.3128 92.8833 87.704 91.6788 89.1558 90.3538C89.3674 90.5946 89.5641 90.8357 89.7606 91.0765Z" fill="white"/>
<path d="M81.4737 101.375C81.5947 101.375 81.7157 101.315 81.7762 101.255L82.0786 101.857L82.4415 102.519C81.5342 103.001 80.6269 103.483 79.659 103.905C79.4171 103.423 79.2356 103.062 78.9937 102.64C79.0541 102.61 79.1298 102.58 79.2054 102.55C79.281 102.519 79.3566 102.489 79.4171 102.459C78.9046 101.609 78.3921 100.652 77.93 99.7886L77.8444 99.6286C77.7839 99.6587 77.7083 99.6889 77.6326 99.719C77.557 99.7491 77.4814 99.7792 77.4209 99.8093C77.1792 99.3279 76.9974 98.9659 76.7556 98.5446C76.9728 98.4436 77.1935 98.3427 77.416 98.2409L77.4177 98.2401C78.124 97.9171 78.8486 97.5857 79.5381 97.2196C79.5381 97.2196 80.0825 98.2434 80.2034 98.4241L79.8405 98.6048L80.3244 99.5684L80.3849 99.5082C80.6035 99.3631 80.8441 99.2398 81.0933 99.1121C81.2579 99.0278 81.4263 98.9415 81.5947 98.8457L81.6552 98.7855L81.1713 97.8219L80.8083 98.0025C80.6874 97.8219 80.1429 96.798 80.1429 96.798C81.0503 96.256 81.9576 95.7139 82.8045 95.1719C82.9254 95.3827 83.0313 95.5784 83.1371 95.7741C83.243 95.9698 83.3489 96.1656 83.4698 96.3764C83.4094 96.4065 83.3489 96.4517 83.2884 96.4969C83.2279 96.5421 83.1674 96.5872 83.1069 96.6173C83.6195 97.468 84.1321 98.4254 84.5943 99.2885L84.6796 99.448C84.7401 99.4178 84.8006 99.3727 84.8611 99.3275C84.9216 99.2823 84.9821 99.2372 85.0426 99.207C85.1636 99.4178 85.2694 99.6287 85.3753 99.8395C85.4811 100.05 85.587 100.261 85.7079 100.472C84.8611 101.014 83.9538 101.556 83.0464 102.038L82.381 100.833C82.5625 100.773 82.744 100.652 82.744 100.652L82.1996 99.6888L82.1391 99.7491C81.9205 99.8942 81.6799 100.017 81.4307 100.145C81.2661 100.229 81.0977 100.316 80.9293 100.412L80.8688 100.472L81.4132 101.435L81.4737 101.375Z" fill="white"/>
<path d="M29.574 25.069C29.574 25.069 29.9369 24.7679 30.1184 24.5872C29.6345 24.1054 29.1506 23.6838 28.6062 23.2623C27.2754 24.4065 26.0051 25.6713 24.7953 26.936C25.3397 28.0201 25.8237 28.9837 26.3681 30.128C26.3681 30.1581 26.3832 30.1732 26.3983 30.1882C26.4134 30.2033 26.4285 30.2183 26.4285 30.2484C26.3681 30.2484 26.3681 30.2484 26.3076 30.1882C25.7329 29.9774 25.1885 29.7666 24.6441 29.5559C24.0998 29.3451 23.5552 29.1342 22.9807 28.9235C21.8314 30.2484 20.7426 31.6939 19.7143 33.1393C20.0207 33.4444 20.3271 33.7012 20.6489 33.9709C20.8352 34.1269 21.027 34.2877 21.2265 34.4643C21.3475 34.2836 21.6499 33.9222 21.6499 33.9222C21.6499 33.9222 25.1583 37.054 25.2188 37.1142C25.2188 37.1142 24.9768 37.5358 24.8558 37.7165C25.1879 38.0471 25.5484 38.3493 25.8983 38.6426C26.0581 38.7766 26.2164 38.9093 26.3681 39.0414C26.9729 38.0778 27.6383 37.1744 28.3642 36.271C28.0321 35.9404 27.6715 35.6381 27.3215 35.3447C27.1617 35.2107 27.0037 35.0782 26.852 34.9461C26.731 35.1267 26.4285 35.4881 26.4285 35.4881C26.4285 35.4881 24.0695 33.3802 22.9202 32.3564C22.9504 32.3262 22.9655 32.2961 22.9807 32.266C22.9958 32.2359 23.0109 32.2058 23.0412 32.1757C24.1299 32.5973 25.2339 33.0188 26.3378 33.4404C27.4417 33.862 28.5457 34.2836 29.6345 34.7052C29.7857 34.5546 29.9218 34.389 30.0579 34.2234C30.194 34.0578 30.3301 33.8921 30.4813 33.7416C30.1184 33.0389 29.7487 32.3363 29.3791 31.6337C28.6398 30.2284 27.9005 28.8231 27.2149 27.4178L27.3964 27.2372C28.5457 28.261 30.9047 30.3689 30.9047 30.3689L30.4208 30.8507C30.9047 31.3325 31.3887 31.7541 31.9331 32.1757C33.0219 31.0916 34.1107 30.0678 35.26 29.1042C34.9279 28.7735 34.5673 28.4713 34.2174 28.1779C34.0574 28.0438 33.8995 27.9114 33.7477 27.7792C33.5663 27.8996 33.2033 28.2008 33.2033 28.261C33.0824 28.2008 29.574 25.069 29.574 25.069Z" fill="white"/>
<path d="M44.8778 16.3363C44.6358 16.3965 44.2124 16.5772 44.2124 16.5772C44.2124 16.5772 46.39 20.793 46.3295 20.793C46.3295 20.793 46.8134 20.6123 46.9949 20.5521L47.9022 22.3588C46.4505 22.8407 45.0592 23.4429 43.668 24.0452L42.7606 22.2384C43.0026 22.1179 43.426 21.9373 43.426 21.9373C43.3894 21.9373 42.8654 20.9005 42.2964 19.7748C41.9253 19.0405 41.535 18.2683 41.2484 17.7215C41.2182 17.7215 41.1879 17.7365 41.1577 17.7516C41.1274 17.7666 41.0972 17.7817 41.0669 17.7817C41.1814 18.8923 41.3093 20.003 41.438 21.12C41.5814 22.3651 41.7258 23.6186 41.8533 24.8883C41.595 24.9986 41.3591 25.1312 41.1321 25.2589C40.987 25.3405 40.8455 25.4202 40.704 25.4906C38.95 23.8646 37.1959 22.2989 35.4419 20.7332C35.4117 20.7633 35.381 20.7779 35.3507 20.793C35.3205 20.808 35.2902 20.8231 35.26 20.8532C35.9859 22.2384 37.4376 25.069 37.4376 25.069C37.4376 25.069 37.861 24.8281 38.0425 24.7077L38.9498 26.5144C37.982 27.1167 37.0141 27.719 36.1068 28.3814L35.1995 26.5747C35.381 26.394 35.8044 26.1531 35.8044 26.1531L33.6268 21.9373C33.5663 21.9373 33.2034 22.1782 33.0219 22.2986C32.8707 21.9975 32.7194 21.7114 32.5682 21.4253C32.417 21.1393 32.2658 20.8532 32.1145 20.5521C33.6268 19.5282 35.139 18.6248 36.7117 17.7817C37.1654 18.1731 37.6039 18.5646 38.0425 18.9561C38.481 19.3476 38.9196 19.739 39.3732 20.1305L39.4337 20.1907V20.0703C39.3732 19.468 39.3128 18.8959 39.2523 18.3238C39.1918 17.7516 39.1313 17.1794 39.0708 16.5772C40.6435 15.8545 42.3372 15.1317 43.9704 14.5295C44.172 14.9711 44.3737 15.3593 44.5753 15.7474C44.6761 15.9414 44.7769 16.1355 44.8778 16.3363Z" fill="white"/>
<path d="M100.528 35.8496C100.271 36.0453 100.013 36.241 99.7414 36.4517C99.6322 36.2886 99.3752 35.8802 99.4151 35.8022C99.1913 35.9459 97.4808 37.2583 95.8815 38.4855L95.8776 38.4884L95.8684 38.4955C95.2064 39.0034 94.5643 39.4961 94.0554 39.8846C93.7836 39.4937 93.4968 39.0729 93.21 38.652L93.2085 38.6499L93.2073 38.6481C92.9205 38.2273 92.6334 37.8061 92.3617 37.4153C93.0271 35.3074 94.2369 31.3927 94.2369 31.3927L94.1764 31.3325C94.1159 31.3325 91.6358 33.2597 91.6358 33.2597C91.6358 33.2597 91.9383 33.6813 92.1197 33.862C91.8479 34.0725 91.5911 34.268 91.3344 34.4635L91.3335 34.4641L91.3327 34.4648C91.0758 34.6603 90.819 34.8559 90.547 35.0665C89.8211 34.1631 89.0348 33.2597 88.1879 32.4166C88.4599 32.206 88.7168 32.0104 88.9736 31.8148L88.9744 31.8142C89.2315 31.6185 89.4885 31.4228 89.7607 31.212C89.9421 31.4529 90.3051 31.8143 90.3051 31.8143L94.0554 28.9235C94.0554 28.9235 93.6925 28.5019 93.511 28.3212C93.7831 28.1105 94.0401 27.9148 94.297 27.7192C94.5541 27.5235 94.8115 27.3274 95.0837 27.1167C96.0515 28.1405 96.9589 29.1644 97.8057 30.2484C97.2613 32.0552 96.112 35.6688 96.112 35.6688L96.1725 35.729L98.2291 34.1631C98.2291 34.1631 97.9267 33.7415 97.8057 33.5608C98.0779 33.3501 98.3349 33.1544 98.5919 32.9587C98.849 32.7629 99.1062 32.5672 99.3784 32.3563C100.044 33.2597 100.709 34.2836 101.314 35.2472C101.042 35.4578 100.785 35.6534 100.528 35.8489L100.528 35.8496Z" fill="white"/>
<path d="M19.1094 38.0778C19.1094 38.0176 19.3514 37.596 19.5328 37.3551C19.2304 37.2045 18.943 37.054 18.6557 36.9034C18.3684 36.7528 18.0811 36.6023 17.7786 36.4517C16.9318 37.8971 16.2059 39.4028 15.5405 40.9084C15.843 41.059 16.1303 41.2095 16.4176 41.3601C16.705 41.5107 16.9923 41.6612 17.2947 41.8118C17.4157 41.5709 17.6577 41.0891 17.6577 41.0289L21.8919 43.1368C21.8919 43.1368 21.6499 43.6788 21.529 43.9197L23.3436 44.8231C24.009 43.2572 24.7349 41.8118 25.5817 40.3664L23.7671 39.463C23.6461 39.7039 23.3436 40.1857 23.3436 40.1857C23.2831 40.1857 19.1094 38.0778 19.1094 38.0778Z" fill="white"/>
<path d="M90.668 25.4906C90.668 25.4906 87.7645 29.4052 87.825 29.4655C87.8976 29.5136 87.9508 29.5618 88.0041 29.61C88.0839 29.6823 88.1638 29.7545 88.3089 29.8268C87.946 30.3689 87.6435 30.7904 87.2201 31.3325C86.1313 30.3086 84.982 29.345 83.7722 28.4416L84.8611 26.936C84.982 27.0564 85.2845 27.2973 85.2845 27.2973L86.2523 25.9724L84.3167 24.5269L83.3488 25.8519L83.4698 25.9121C83.5303 25.9724 83.6513 26.0928 83.7722 26.153L83.2279 26.8758L82.6834 27.6587C81.4737 26.8155 80.2639 26.0326 78.8726 25.2497C79.2356 24.7076 79.538 24.286 79.9614 23.744C80.2034 23.8645 80.5663 24.1054 80.5663 24.1054C80.6268 24.1054 83.4698 20.1907 83.4698 20.1907C83.4093 20.1907 83.0464 19.9498 82.8649 19.8293C83.0766 19.5583 83.2732 19.2873 83.4698 19.0163C83.6664 18.7453 83.863 18.4742 84.0747 18.2032C85.345 18.9862 86.6152 19.8293 87.825 20.6725L87.2201 21.4554L86.7362 22.1781L86.3733 21.9372L86.2523 21.877L86.1918 21.9975C86.1313 22.0577 85.345 23.1417 85.345 23.1417L85.2845 23.2622L85.4055 23.3224L85.5869 23.4429C86.0103 23.744 87.0991 24.5269 87.0991 24.5269L87.2201 24.5872L87.2806 24.4667L88.1275 23.3827L88.188 23.2622L88.067 23.202C88.0065 23.1418 87.8855 23.0213 87.7645 22.9611L88.3089 22.2384C88.3729 22.1535 88.4443 22.0686 88.518 21.9811C88.6534 21.8202 88.7963 21.6505 88.9138 21.4554C90.1236 22.3588 91.2729 23.3224 92.3617 24.286C92.15 24.5571 91.9534 24.8281 91.7568 25.0991C91.5602 25.3701 91.3636 25.6411 91.1519 25.9121C91.0309 25.7917 90.668 25.4906 90.668 25.4906Z" fill="white"/>
<path d="M69.7993 12.9034C69.7993 12.9034 68.4081 12.6625 67.6822 12.4818C66.7749 12.3011 65.3836 12.1807 65.3836 12.1807L65.0812 14.1681L66.17 14.3488L65.3836 19.468C65.2022 20.5521 64.8392 20.7328 64.4158 20.793C64.0529 20.793 63.5085 20.5521 63.5085 20.5521L63.206 22.4191C63.206 22.4191 64.1738 23.0213 65.1417 23.1418C66.2305 23.3225 66.7749 23.1418 67.3798 22.66C68.1661 22.0577 68.4686 21.0941 68.5895 20.0703L69.7993 12.9034Z" fill="white"/>
<path d="M13.6049 46.2685C13.7259 45.7867 14.2098 44.281 14.2098 44.281L21.287 46.2685C22.3153 46.5696 23.2227 46.9912 23.7066 47.8344C24.0695 48.4969 24.13 49.0389 23.8276 50.1229C23.5251 51.0866 22.7992 51.9899 22.7992 51.9899L20.9846 51.4479C20.9846 51.4479 21.287 50.9661 21.3475 50.6048C21.408 50.1832 21.287 49.7616 20.1982 49.4605L15.1776 48.015L14.8752 49.0991L13 48.5571C13 48.5571 13.4234 46.8105 13.6049 46.2685Z" fill="white"/>
<path d="M18.6481 61L19.073 61.4194L20.2262 64.9539C20.2262 64.9836 20.2262 64.9986 20.2336 65.0062C20.2412 65.0138 20.2563 65.0138 20.2869 65.0138H24.4752L24.5966 65.4332L24.8394 66.1521L24.9608 66.5714L24.5966 66.8111L21.5616 69.0276V69.0876L22.7149 72.682L22.8363 73.1014L22.4721 73.341L21.8651 73.7604L21.5009 74L21.1367 73.7604L18.0411 71.5438H17.9197L14.8847 73.7604L14.5205 74L14.1563 73.7604L13.5494 73.2811L13.1852 73.0415L13.3066 72.6221L14.4598 69.0876C14.5205 69.0876 14.4598 69.0276 14.4598 69.0276L11.3642 66.8111L11 66.5714L11.1214 66.1521L11.3642 65.4332L11.4856 65.0138H15.6738L15.7345 64.9539L16.8878 61.4194L17.0092 61H18.6481Z" fill="white"/>
<path d="M103.687 61L104.112 61.4194L105.265 64.9539C105.265 65.0138 105.265 65.0138 105.326 65.0138H109.514L109.636 65.4332L109.879 66.1521L110 66.5714L109.636 66.8111L106.601 69.0276V69.0876L107.754 72.682L107.876 73.1014L107.511 73.341L106.904 73.7604L106.54 74L106.176 73.7604L103.08 71.5438H102.959L99.924 73.7604L99.5598 74L99.1956 73.7604L98.5886 73.2811L98.2244 73.0415L98.3458 72.6221L99.4991 69.0876C99.5598 69.0876 99.4991 69.0276 99.4991 69.0276L96.4034 66.8111L96.0392 66.5714L96.1606 66.1521L96.4034 65.4332L96.5248 65.0138H100.713L100.774 64.9539L101.927 61.4194L102.048 61H103.687Z" fill="white"/>
<path d="M37.3381 37V49.388H42.0743V67.9699C42.0743 72.583 40.6648 72.8706 39.764 73.0544L39.7362 73.0601C39.6463 73.0601 39.5564 73.0754 39.4664 73.0907C39.3765 73.1061 39.2866 73.1214 39.1966 73.1214C38.1175 73.1214 36.8585 72.7534 36.4388 72.6308L35 72.1402V83.7309L35.6595 84.0375C35.6713 84.0416 35.7025 84.0536 35.7516 84.0726C36.447 84.3415 40.7365 86 44.7122 86C49.3885 86 51.9065 85.0801 54.6643 82.2591C58.0216 78.8248 58.5012 73.9186 58.5012 69.5644V37H37.3381Z" fill="white"/>
<path d="M81.1631 82.2591C84.5204 78.8248 85 73.9186 85 69.5645V37H63.837V49.388H68.5732V67.97C68.5732 72.583 67.1637 72.8706 66.2629 73.0544L66.235 73.0601C66.1451 73.0601 66.0552 73.0754 65.9653 73.0907C65.8754 73.106 65.7854 73.1214 65.6955 73.1214C64.4365 73.1214 62.9377 72.6308 62.9377 72.6308L61.4988 72.1402V83.7309L62.1583 84.0375C62.1702 84.0416 62.2013 84.0536 62.2504 84.0726C62.9458 84.3415 67.2354 86 71.211 86C75.8873 86 78.4053 85.0801 81.1631 82.2591Z" fill="white"/>
</svg>
