<svg width="56" height="56" viewBox="0 0 56 56" fill="none" xmlns="http://www.w3.org/2000/svg">
<path d="M33.2768 25.0705L31.7576 20.4079C31.6444 20.0604 31.7657 19.6725 32.0646 19.4543L36 16.6018L35.6768 15.6402H30.8283C30.4566 15.6402 30.1333 15.4058 30.0202 15.0503L28.5172 10.4442H27.5071L26.004 15.0503C25.8909 15.3977 25.5677 15.6402 25.196 15.6402H20.3152L20 16.5775L23.9596 19.4543C24.2586 19.6725 24.3798 20.0523 24.2667 20.4079L22.7636 25.0462L23.5717 25.6361L27.5152 22.7674C27.8141 22.5493 28.2182 22.5493 28.5172 22.7674L32.4929 25.6523L33.2768 25.0705Z" fill="#E4002B"/>
<path d="M35 1L32 0L30.7373 6.3136C31.4695 6.48444 32.176 6.72232 32.8499 7.02042L35 1Z" fill="#E4002B"/>
<path d="M38.8541 12.876C38.5327 12.1964 38.1494 11.5518 37.7114 10.9495L42.6529 6.95959L44.319 9.64738L38.8541 12.876Z" fill="#E4002B"/>
<path d="M39.4831 21.4951C39.6943 20.8001 39.8442 20.0784 39.9264 19.3363L46.5494 19.3489L46.1513 22.486L39.4831 21.4951Z" fill="#E4002B"/>
<path d="M16.1611 19.9708C16.281 20.6966 16.466 21.4004 16.71 22.076L10.2926 24.0411L9.43121 20.9984L16.1611 19.9708Z" fill="#E4002B"/>
<path d="M17.517 12.1555C17.1662 12.7833 16.8702 13.4459 16.6354 14.1367L10.3562 11.5995L11.603 8.69341L17.517 12.1555Z" fill="#E4002B"/>
<path d="M23.9789 6.6903C23.292 6.93455 22.6338 7.23962 22.011 7.59902L18.8228 1.65962L21.6402 0.223599L23.9789 6.6903Z" fill="#E4002B"/>
<path fill-rule="evenodd" clip-rule="evenodd" d="M48 39.5V46L28 56L8 46V39.5L2 36.5L8 28L28 36L48 28L54 36.5L48 39.5ZM26.9981 37.7533L22 46.5L10 40.5V44.7639L27 53.2639V37.7541L26.9981 37.7533ZM29.0019 37.7533L29 37.7541V53.2639L46 44.7639V40.5L34 46.5L29.0019 37.7533ZM25.1232 37.0033L21.2022 43.865L4.97609 35.752L8.72333 30.4434L25.1232 37.0033ZM30.8768 37.0033L34.7978 43.865L51.0239 35.752L47.2767 30.4434L30.8768 37.0033Z" fill="black"/>
</svg>
