<svg width="56" height="56" viewBox="0 0 56 56" fill="none" xmlns="http://www.w3.org/2000/svg">
<path fill-rule="evenodd" clip-rule="evenodd" d="M38.75 55.1219L47.5 50L45.75 2L37.25 0L26.498 0.819203C26.4827 1.7499 25.3735 2.54885 23.9667 2.62258C22.623 2.69299 21.4802 2.0771 21.2823 1.21659L11 2L9 50L37.25 56L38.7448 55.125H38.75V55.1219ZM11.0686 48.3947L12.9243 3.85919L20.2549 3.30066C20.5652 3.61086 20.916 3.85503 21.2606 4.03707C22.0935 4.47709 23.0809 4.67174 24.0714 4.61983C25.1061 4.56561 26.1138 4.24358 26.9172 3.66931C27.2578 3.42586 27.5959 3.10793 27.8715 2.72035L37 2.02484V53.8289L36.908 53.8827L11.0686 48.3947ZM38.75 52.8045V2.40757L43.8069 3.59742L45.4578 48.878L38.75 52.8045Z" fill="black"/>
<path d="M32.4427 22.694C32.4427 19.95 29.8387 17.514 25.3307 17.514C21.5787 17.514 19.1427 18.914 17.2667 21.182L20.7947 24.402C22.1107 23.002 23.0907 22.414 24.2667 22.414C25.3307 22.414 25.7787 22.918 25.7787 23.618C25.7787 25.522 21.6907 26.054 21.7467 30.478H26.3667C26.2827 27.398 32.4427 27.258 32.4427 22.694ZM26.4507 36.75V31.906H21.6627V36.75H26.4507Z" fill="#E4002B"/>
</svg>
