<svg width="128" height="128" viewBox="0 0 128 128" fill="none" xmlns="http://www.w3.org/2000/svg">
<g filter="url(#filter0_d_8_13312)">
<path d="M64 120C97.1371 120 124 93.1371 124 60C124 26.8629 97.1371 0 64 0C30.8629 0 4 26.8629 4 60C4 93.1371 30.8629 120 64 120Z" fill="white"/>
<path d="M64 116.63C95.276 116.63 120.63 91.2761 120.63 60.0001C120.63 28.724 95.276 3.36975 64 3.36975C32.7239 3.36975 7.36969 28.724 7.36969 60.0001C7.36969 91.2761 32.7239 116.63 64 116.63Z" fill="black"/>
<path d="M106.455 114.739C104.909 114.739 103.764 113.552 103.764 112.049C103.764 110.546 104.909 109.358 106.455 109.358C108 109.358 109.145 110.558 109.145 112.049C109.145 113.539 108 114.739 106.455 114.739ZM106.455 109.77C105.139 109.77 104.206 110.77 104.206 112.049C104.206 113.327 105.139 114.327 106.455 114.327C107.77 114.327 108.691 113.309 108.691 112.049C108.691 110.788 107.788 109.77 106.455 109.77ZM107.273 113.394C107.012 113.394 106.873 113.224 106.873 112.964V112.691C106.873 112.521 106.77 112.364 106.545 112.364H106.073V113.382H105.339V110.746H106.697C107.297 110.746 107.57 111.073 107.57 111.491V111.521C107.57 111.794 107.467 112.024 107.127 112.109C107.497 112.152 107.57 112.412 107.57 112.697V112.939C107.57 113.055 107.624 113.139 107.77 113.2V113.4H107.267L107.273 113.394ZM106.842 111.546C106.842 111.376 106.727 111.273 106.515 111.273H106.073V111.903H106.503C106.715 111.903 106.848 111.83 106.848 111.618V111.546H106.842Z" fill="black"/>
<path d="M45.4485 50.0727H40.7152V36.8303H63.0788V69.5576C63.0788 73.9515 62.6 78.9273 59.0667 82.4606C56.1939 85.3334 53.5636 86.303 48.6545 86.303C44.3078 86.303 39.6701 84.4587 39.2964 84.31C39.2887 84.307 39.2828 84.3046 39.2788 84.3031L38.2606 83.8849V71.3334L40.4061 72.0182C40.7697 72.1334 42.0303 72.4667 43.0182 72.4667C43.2 72.4667 43.3636 72.4546 43.503 72.4303L43.5041 72.4301C44.3222 72.2968 45.4485 72.1133 45.4485 67.9334V50.0727Z" fill="white"/>
<path d="M72.2485 50.0727H67.5152V36.8364H89.8788V69.5637C89.8788 73.9576 89.4 78.9334 85.8667 82.4667C82.9939 85.3394 80.3636 86.3091 75.4545 86.3091C71.1109 86.3091 66.4643 84.4623 66.0957 84.3158C66.0884 84.3129 66.0827 84.3106 66.0788 84.3091L65.0606 83.8909V71.3394L67.2 72.0182C67.2182 72.0243 68.6364 72.4667 69.8182 72.4667C70 72.4667 70.1636 72.4546 70.303 72.4303L70.3041 72.4301C71.1222 72.2968 72.2485 72.1133 72.2485 67.9333V50.0727Z" fill="white"/>
<path d="M61.4364 69.5576C61.4364 74.0364 60.8727 78.3273 57.903 81.297H57.9091C55.5333 83.6788 53.4303 84.6607 48.6606 84.6607C44.4909 84.6607 39.9091 82.7819 39.9091 82.7819V73.5819C39.9091 73.5819 41.5576 74.1091 43.0242 74.1091C43.2788 74.1091 43.5333 74.091 43.7697 74.0546C45.6061 73.7576 47.097 72.6728 47.097 67.9334V48.4304H42.3636V38.4728H61.4364V69.5576Z" fill="#E4002B"/>
<path d="M88.2303 69.5576C88.2303 74.0364 87.6667 78.3273 84.697 81.297H84.703C82.3273 83.6788 80.2242 84.6607 75.4545 84.6607C71.2848 84.6607 66.703 82.7819 66.703 82.7819V73.5819C66.703 73.5819 68.3515 74.1091 69.8182 74.1091C70.0727 74.1091 70.3273 74.091 70.5636 74.0546C72.4 73.7576 73.8909 72.6728 73.8909 67.9334V48.4304H69.1576V38.4728H88.2303V69.5576Z" fill="#E4002B"/>
<path d="M60.503 13.9273C60.3879 13.2485 60.2848 12.6303 60.1758 11.9515C58.7879 12.0667 57.9333 12.1818 56.8242 12.3455C56.9394 13.0243 57.0424 13.6364 57.1576 14.3212C57.3212 14.297 57.6303 14.2546 57.7212 14.2424C57.7151 14.2606 56.8909 16.2728 56.8909 16.2728C56.8788 16.2546 55.5576 14.6061 55.5394 14.5879C55.6889 14.5596 55.7953 14.5421 55.9017 14.5246C55.9549 14.5158 56.0081 14.5071 56.0667 14.497C56.0091 14.1575 55.956 13.8347 55.903 13.5119L55.9028 13.5105L55.9025 13.5091C55.8497 13.1874 55.7968 12.8656 55.7394 12.5273C54.2182 12.7818 52.7273 13.1031 51.2242 13.4909C51.2817 13.8298 51.3347 14.155 51.3876 14.4803L51.3878 14.4814C51.4408 14.8073 51.4939 15.1333 51.5515 15.4728C51.6364 15.4515 51.7539 15.421 51.8602 15.3934C51.9964 15.358 52.1144 15.3273 52.1212 15.3273C52.1212 15.3273 54.8848 17.9697 54.8848 17.9758C54.8848 17.9758 55.1394 19.4849 55.1454 19.497C55.1333 19.497 54.6727 19.594 54.4485 19.6485C54.4952 19.924 54.541 20.1916 54.5865 20.458C54.6532 20.848 54.7195 21.2356 54.7879 21.6424C56.3515 21.2849 57.9454 21.0121 59.5454 20.8243C59.4561 20.2355 59.3622 19.6832 59.2637 19.1042L59.2182 18.8364C59.0854 18.8507 58.8612 18.88 58.6967 18.9014C58.5834 18.9162 58.4983 18.9273 58.4909 18.9273C58.4909 18.9152 58.2424 17.4121 58.2364 17.4121C58.2364 17.4121 59.9636 14 59.9636 13.994C60.1834 13.9783 60.2902 13.9671 60.4284 13.9526L60.497 13.9455L60.503 13.9273Z" fill="white"/>
<path fill-rule="evenodd" clip-rule="evenodd" d="M81.2303 14.7091C78.1151 13.5576 75.6788 15.1515 74.8 17.4788C73.9818 19.6485 74.8667 22.2606 77.9818 23.4121C81.0909 24.5879 83.4303 23.1758 84.2727 21.0182C85.1697 18.7273 84.3394 15.8909 81.2303 14.7152V14.7091ZM78.697 21.5031C77.7454 21.1515 77.8909 20.194 78.4667 18.6424C79.0424 17.097 79.5697 16.2606 80.5212 16.6121C81.4727 16.9697 81.3212 17.9455 80.7394 19.4909C80.1636 21.0424 79.6424 21.8606 78.6909 21.5031H78.697Z" fill="white"/>
<path d="M101.952 49.5455C102.455 51.1334 103.842 51.9879 105.297 51.5031C106.103 51.2364 106.685 50.6061 106.927 50.1455C107.37 49.3212 107.515 48.2606 107.612 47.4121L107.623 47.3147C107.678 46.828 107.721 46.4479 107.812 46.2546C107.873 46.1273 108.018 46.0061 108.164 45.9576C108.515 45.8424 108.824 46.0243 108.964 46.4364C109.158 47.0182 108.988 47.5091 108.442 47.9818C108.418 48 108.388 48.0243 108.364 48.0424C108.552 48.6667 108.727 49.297 108.891 49.9334C109.362 49.7765 109.845 49.6174 110.328 49.4588C110.647 49.3539 110.965 49.2492 111.279 49.1455C111.115 48.5152 110.921 47.897 110.721 47.2728L110.23 47.4364C110.215 47.4424 110.202 47.447 110.188 47.4515L110.182 47.4535C110.17 47.4574 110.158 47.4615 110.145 47.4667C110.158 47.4364 110.17 47.4121 110.182 47.3818C110.436 46.7455 110.448 46 110.2 45.2909C109.642 43.7212 108.188 43.0243 106.703 43.5212C106.024 43.7455 105.57 44.1697 105.255 44.8606C104.964 45.4922 104.915 46.2252 104.869 46.8892L104.861 47.0182C104.824 47.5758 104.782 48.0546 104.618 48.3879C104.509 48.6061 104.394 48.7152 104.212 48.7758C103.855 48.897 103.527 48.6909 103.382 48.2546C103.158 47.6 103.382 47.0606 104.055 46.5334C103.824 45.9212 103.606 45.3273 103.394 44.7031C102.948 44.8515 102.511 44.997 102.073 45.1424C101.635 45.2879 101.197 45.4334 100.752 45.5818C100.82 45.7473 100.89 45.9109 100.958 46.0736C101.144 46.513 101.327 46.9456 101.491 47.3879C101.544 47.3697 101.584 47.3554 101.62 47.3427C101.704 47.3133 101.762 47.2926 101.885 47.2546L101.964 47.2303L101.957 47.2518L101.949 47.2765C101.945 47.2887 101.941 47.3007 101.939 47.3091C101.727 48.0121 101.739 48.8546 101.964 49.5576L101.952 49.5455Z" fill="white"/>
<path d="M107.033 41.2913L107.03 41.2924C106.604 41.4934 106.178 41.6944 105.764 41.8909L105.758 41.8849C104.43 42.5152 103.358 41.8788 102.509 40.2788C102.394 40.0606 102.297 39.8727 102.242 39.7515L103.376 39.2182C103.642 39.6546 103.855 39.9394 104.145 40.0364C104.376 40.1152 104.582 40.1697 105.127 39.9091C105.158 39.8909 105.182 39.8788 105.212 39.8667L105.185 39.8092C105.093 39.6144 104.793 38.9776 104.612 38.6364C105.352 38.2849 106.055 37.9515 106.8 37.6C107.315 38.5879 107.818 39.6 108.303 40.6909C107.888 40.888 107.46 41.0897 107.033 41.2913Z" fill="white"/>
<path d="M77.6679 100.461C77.6894 100.543 77.711 100.625 77.7326 100.7C77.2246 100.503 76.5911 100.516 75.9515 100.697C74.3394 101.152 73.4121 102.642 73.903 104.364C74.4061 106.121 75.9273 107.218 78.0061 106.624C79.5515 106.176 80.3212 105.182 80.2485 103.564C79.7091 103.564 79.1636 103.558 78.6182 103.539C78.7091 104.485 78.497 105 77.9151 105.176C77.2364 105.376 76.7879 104.927 76.4667 103.8C76.1636 102.739 76.297 102.103 76.9454 101.915C77.4 101.782 77.8424 101.958 78.1758 102.455C78.6538 102.303 79.1258 102.134 79.5978 101.964L79.5988 101.964L79.6 101.964C79.4 101.261 79.1939 100.533 78.9939 99.8243C78.5394 99.9879 78.0848 100.145 77.6242 100.297C77.6386 100.35 77.653 100.404 77.6674 100.459L77.6679 100.461Z" fill="white"/>
<path d="M96.9308 87.0308C96.9607 87.0584 96.9906 87.086 97.0191 87.112C97.038 87.1292 97.0563 87.1458 97.0735 87.1611L97.097 87.1818L97.0848 87.1879C96.6303 87.2667 96.2 87.5152 95.8364 87.9091C95.0606 88.7515 95.0303 89.7818 95.8485 90.5031C96.5636 91.1334 97.497 91.0667 98.5091 90.6182C98.5788 90.5879 98.6485 90.5561 98.7182 90.5243C98.7879 90.4924 98.8576 90.4606 98.9273 90.4303C99.4909 90.1758 99.7758 90.1455 99.9576 90.3091C100.145 90.4788 100.133 90.7212 99.9333 90.9455C99.6242 91.2909 99.2485 91.3455 98.6909 91.1031C98.3758 91.4425 98.0485 91.7697 97.7151 92.0909L98.1173 92.4483C98.4909 92.7802 98.8767 93.1227 99.2364 93.4424C99.4942 93.1798 99.7369 92.9059 99.9765 92.6355L99.9773 92.6347L99.978 92.634C100.042 92.5619 100.106 92.4895 100.17 92.4182C100.073 92.3273 99.9697 92.2364 99.8667 92.1455C100.37 92.0485 100.891 91.7576 101.224 91.3697C101.988 90.4788 101.867 89.2364 101.097 88.5515C100.376 87.9152 99.5333 88.0243 98.6364 88.4182C98.4848 88.4849 98.3273 88.5515 98.1697 88.6182C98.044 88.6718 97.9323 88.7228 97.8321 88.7687C97.4104 88.9617 97.19 89.0626 96.9697 88.8667C96.8 88.7212 96.8061 88.497 96.9939 88.2849C97.303 87.9334 97.703 87.9152 98.1212 88.0909C98.4242 87.7334 98.7091 87.3758 98.9939 87.0061C98.777 86.8133 98.5482 86.6085 98.3192 86.4037L98.3152 86.4C98.0848 86.194 97.8545 85.9879 97.6364 85.794C97.3515 86.1637 97.0606 86.5212 96.7636 86.8788C96.7809 86.8939 96.7995 86.9106 96.819 86.9282C96.8542 86.9601 96.8928 86.9957 96.9308 87.0308Z" fill="white"/>
<path d="M32.0121 88.4424C32.0606 88.403 32.1242 88.3531 32.1879 88.3031C32.2515 88.2531 32.3151 88.203 32.3636 88.1637C32.6667 88.5152 32.9757 88.8606 33.297 89.194C33.0706 89.3781 32.8322 89.5727 32.5938 89.7673L32.5926 89.7684L32.5849 89.7746C32.3475 89.9684 32.1102 90.1622 31.8848 90.3455C31.5697 90.0061 31.2545 89.6667 30.9515 89.3152C31.1939 88.9273 31.2364 88.5334 30.9394 88.1758C30.7636 87.9576 30.5394 87.9152 30.3697 88.0546C30.1442 88.2408 30.2081 88.4746 30.3306 88.9227C30.3595 89.0287 30.3918 89.1467 30.4242 89.2788C30.4454 89.3606 30.4667 89.444 30.4879 89.5273L30.5307 89.6953L30.5515 89.7758C30.8 90.7212 30.7697 91.5758 30.0242 92.1879C29.2242 92.8424 27.9757 92.7637 27.2242 91.8667C26.897 91.4788 26.6909 90.9152 26.6788 90.4C26.6329 90.4378 26.5859 90.4755 26.5382 90.5138L26.5364 90.5152C26.4776 90.5624 26.4173 90.6108 26.3576 90.6606C26.2595 90.5376 26.1594 90.4152 26.0588 90.2924C25.8671 90.0583 25.6737 89.8222 25.4909 89.5758C25.8413 89.288 26.2146 88.9858 26.5813 88.689L26.583 88.6877C26.7485 88.5537 26.9127 88.4209 27.0727 88.2909C27.3394 88.6727 27.6121 89.0485 27.8909 89.4121C27.5636 89.9273 27.5576 90.3031 27.8485 90.6667C28.0364 90.897 28.2727 90.9515 28.4727 90.794C28.6606 90.6364 28.6788 90.3515 28.5151 89.7576C28.4798 89.6363 28.4486 89.5107 28.4181 89.388L28.4 89.3152C28.1212 88.2424 28.2 87.3091 28.9333 86.7091C29.7757 86.0182 30.7879 86.2121 31.497 87.1091C31.8303 87.5273 32.0061 87.994 32.0121 88.4606V88.4424Z" fill="white"/>
<path fill-rule="evenodd" clip-rule="evenodd" d="M34.3636 92.4L35.2727 91.3334L35.2667 91.3273C36.3212 92.3273 37.4667 93.2546 38.6182 94.1334C38.3393 94.4669 38.0802 94.7709 37.8007 95.0986L37.7998 95.0997L37.7978 95.102L37.7091 95.2061L37.6921 95.1932C37.5685 95.099 37.4247 94.9894 37.303 94.8909C36.9273 95.9273 36.5212 97.0546 36.1576 98.0849C36.2786 98.1756 36.3759 98.2486 36.503 98.3334C36.4057 98.4498 36.3143 98.5596 36.225 98.667C36.0308 98.9006 35.8462 99.1225 35.6303 99.3758C34.8 98.7758 33.9879 98.1455 33.2 97.497C33.2629 97.4236 33.4008 97.2593 33.5472 97.0849C33.7391 96.8563 33.946 96.6097 34.0182 96.5273C34.1091 96.6061 34.4303 96.8667 34.4303 96.8667L34.7394 96.1394L33.4242 95.0303L32.7454 95.4182C32.7454 95.4182 32.8606 95.5212 32.9273 95.5879C32.9939 95.6546 33.1151 95.7636 33.1151 95.7636L32.297 96.7334C31.7212 96.2243 31.1394 95.703 30.5818 95.1515C30.6861 95.0268 30.7827 94.9104 30.8772 94.7967C31.0627 94.5732 31.2396 94.3602 31.4485 94.1152L31.459 94.1264C31.5516 94.2248 31.6345 94.3129 31.7454 94.4121C32.1773 94.1701 32.6367 93.9155 33.0991 93.6592L33.101 93.6582C33.6568 93.3502 34.217 93.0397 34.7394 92.7455C34.6788 92.6909 34.6151 92.6318 34.5515 92.5728C34.4879 92.5137 34.4242 92.4546 34.3636 92.4ZM34.0788 94.6121L35.0364 95.4243V95.4182L35.7939 93.6909L35.7091 93.6182L34.0788 94.6121Z" fill="white"/>
<path d="M43.4 97.2303C43.5394 98.5152 43.6848 99.7818 43.8364 101.036C43.8364 101.036 43.8485 101.036 43.8545 101.042C43.9909 100.791 44.1318 100.536 44.2727 100.282C44.4136 100.027 44.5545 99.7728 44.6909 99.5212L44.6505 99.5026C44.5019 99.4342 44.3322 99.356 44.1879 99.2728C44.303 99.0606 44.4167 98.8561 44.5303 98.6515C44.6439 98.447 44.7576 98.2424 44.8727 98.0303C45.5939 98.3879 46.2606 98.7091 47.0788 99.0728C46.8852 99.4294 46.6959 99.7689 46.5 100.12L46.4991 100.122L46.3879 100.321L46.3369 100.301C46.1925 100.242 46.0562 100.186 45.9151 100.121C45.5364 100.806 45.1682 101.476 44.8 102.145L44.7991 102.147L44.7982 102.149C44.4306 102.817 44.063 103.486 43.6848 104.17C43.0606 103.891 42.4182 103.6 41.897 103.315C41.7273 101.855 41.5818 100.455 41.4303 98.9515C41.4303 98.9515 41.4121 98.9394 41.4061 98.9394C41.0667 99.5637 40.6848 100.255 40.3394 100.873C40.497 100.964 40.6606 101.055 40.8182 101.139C40.6371 101.473 40.4823 101.75 40.3095 102.06L40.1636 102.321C39.4303 101.915 38.6909 101.491 37.9939 101.042C38.1733 100.714 38.2998 100.487 38.4249 100.262L38.4255 100.261L38.4264 100.26C38.4994 100.128 38.5721 99.9978 38.6545 99.8485C38.7056 99.8812 38.7588 99.916 38.8127 99.9512C38.9184 100.02 39.0269 100.091 39.1273 100.152C39.6303 99.2364 40.1939 98.2121 40.6909 97.3091C40.6283 97.2691 40.5616 97.228 40.4946 97.1867C40.3995 97.1281 40.3034 97.069 40.2182 97.0121L40.383 96.7124C40.5602 96.3901 40.7329 96.0761 40.9091 95.7515C41.7151 96.2788 42.5394 96.7758 43.3879 97.2364L43.4 97.2303Z" fill="white"/>
<path fill-rule="evenodd" clip-rule="evenodd" d="M54.5091 104.691C55.1636 102.636 53.703 101.424 52.1273 100.915C51.0424 100.582 49.9212 100.218 48.8485 99.7818C48.7758 100.012 48.7046 100.233 48.6334 100.454C48.5622 100.675 48.4909 100.897 48.4182 101.127C48.4593 101.144 48.5009 101.161 48.5428 101.178C48.5749 101.19 48.6071 101.203 48.6393 101.215C48.7136 101.244 48.7878 101.273 48.8606 101.303C48.6418 101.997 48.4084 102.721 48.1786 103.433L48.1772 103.437L48.1765 103.44L48.1756 103.442C48.0754 103.753 47.976 104.061 47.8788 104.364C47.8219 104.341 47.7658 104.319 47.7103 104.297L47.7088 104.297C47.617 104.261 47.5267 104.226 47.4363 104.188C47.3636 104.418 47.2939 104.635 47.2242 104.852C47.1545 105.068 47.0848 105.285 47.0121 105.515C48.1273 105.958 49.2848 106.333 50.4121 106.679C52.4485 107.315 53.9212 106.521 54.5091 104.691ZM51.2577 102.115C51.3167 102.135 51.3758 102.155 51.4363 102.176C52.206 102.424 52.4909 102.903 52.1091 104.097C51.7333 105.267 51.1576 105.497 50.4485 105.267C50.3879 105.245 50.3273 105.226 50.2668 105.206C50.2064 105.187 50.1452 105.167 50.0848 105.145C50.2514 104.624 50.4165 104.112 50.5816 103.601C50.7468 103.088 50.9121 102.576 51.0788 102.055C51.1394 102.076 51.1986 102.096 51.2577 102.115Z" fill="white"/>
<path d="M59.4606 103.076C59.4464 103.29 59.4323 103.504 59.4182 103.727C59.3457 103.721 59.2701 103.712 59.1946 103.703C59.1189 103.694 59.0424 103.685 58.9697 103.679C59.1446 104.565 59.3194 105.446 59.4943 106.326L59.497 106.339H59.5151C59.7673 105.75 60.0134 105.169 60.262 104.582L60.5757 103.842C60.4242 103.83 60.2848 103.818 60.1394 103.8C60.1697 103.315 60.2 102.879 60.2364 102.394C61.1091 102.467 61.9879 102.521 62.8667 102.558C62.8364 103.042 62.8061 103.479 62.7697 103.958C62.6242 103.958 62.4606 103.952 62.3151 103.939C62.4464 104.415 62.5794 104.886 62.7123 105.356C62.8249 105.754 62.9373 106.151 63.0485 106.552H63.0667C63.3636 105.697 63.6606 104.83 63.9515 103.97H63.5151C63.5454 103.485 63.5757 103.055 63.6121 102.57C64.2912 102.57 64.8583 102.55 65.4349 102.53C65.6403 102.523 65.8473 102.515 66.0606 102.509C66.0303 102.994 66 103.436 65.9636 103.915C65.8303 103.927 65.7151 103.933 65.5697 103.933C64.8909 105.479 64.1939 107.061 63.5151 108.594C62.8848 108.594 62.2606 108.57 61.6364 108.539C61.4182 107.752 61.2 106.958 60.9818 106.164H60.9636L60.9622 106.167L60.96 106.172C60.64 106.927 60.32 107.682 60 108.43C59.3636 108.382 58.7151 108.303 58.0848 108.218C57.6242 106.612 57.1515 104.952 56.697 103.327C56.5515 103.303 56.4485 103.285 56.3091 103.255C56.3394 102.77 56.3697 102.327 56.4061 101.842C57.4485 102.03 58.4 102.194 59.5212 102.321L59.5091 102.327C59.4929 102.586 59.4767 102.831 59.4606 103.076Z" fill="white"/>
<path d="M71.4563 102.265L71.4249 102.039L71.4061 101.903L71.4 101.897C70.2606 102.097 69.1515 102.261 67.9757 102.37C68.0091 102.609 68.0394 102.838 68.0697 103.067C68.1 103.295 68.1303 103.524 68.1636 103.764L68.248 103.756L68.331 103.749L68.332 103.749C68.4646 103.737 68.5929 103.726 68.7212 103.709C68.7768 104.125 68.8344 104.557 68.8923 104.993C68.9796 105.648 69.0677 106.311 69.1515 106.933C69.0521 106.943 68.9528 106.954 68.8543 106.965L68.8526 106.966C68.7655 106.976 68.679 106.985 68.5939 106.994C68.6273 107.233 68.6561 107.456 68.6849 107.679C68.7136 107.902 68.7424 108.124 68.7757 108.364C69.9333 108.249 71.0606 108.103 72.2121 107.897C72.1788 107.658 72.1485 107.432 72.1182 107.206L72.1179 107.204L72.1177 107.203C72.0876 106.978 72.0574 106.753 72.0242 106.515C71.8364 106.552 71.6606 106.582 71.4727 106.612C71.4171 106.196 71.3596 105.764 71.3016 105.329C71.2143 104.673 71.1262 104.011 71.0424 103.388C71.0983 103.379 71.1537 103.37 71.2087 103.362C71.3385 103.342 71.4662 103.323 71.5939 103.297C71.5489 102.928 71.5038 102.605 71.4563 102.265Z" fill="white"/>
<path d="M93.3091 90.7879C93.5121 91.0364 93.7136 91.2803 93.9151 91.5243C94.1167 91.7682 94.3182 92.0121 94.5212 92.2606C94.1394 92.6243 93.7515 92.9879 93.3576 93.3394C93.2545 93.2182 93.1394 93.0788 93.0424 92.9576C92.9741 93.0173 92.9052 93.0777 92.8358 93.1385L92.8332 93.1408C92.5651 93.3761 92.2894 93.618 92.0061 93.8485C92.1164 93.9829 92.2443 94.137 92.3709 94.2894L92.3718 94.2905L92.5534 94.5093L92.6485 94.6243C92.9576 94.3697 93.2606 94.1152 93.5576 93.8546L93.5584 93.8557L93.5593 93.8567C93.8193 94.1712 94.0794 94.4856 94.3333 94.8061C94.0364 95.0667 93.7333 95.3273 93.4242 95.5758C93.5419 95.7211 93.6595 95.8585 93.7771 95.9959L93.7782 95.9971C93.8662 96.0999 93.9544 96.203 94.0424 96.3091C94.3939 96.0182 94.7333 95.7212 95.0727 95.4182C95.0212 95.3576 94.9742 95.2999 94.9271 95.2423L94.8798 95.1844L94.8465 95.144L94.8138 95.1046L94.7818 95.0667C95.1757 94.7152 95.5697 94.3576 95.9515 93.9879C96.1545 94.2364 96.3515 94.4758 96.5485 94.7152C96.7454 94.9546 96.9424 95.194 97.1454 95.4424C95.7394 96.7637 94.2667 98.0061 92.7273 99.1455L92.2726 98.5938L92.2712 98.5922C92.1217 98.4109 91.9722 98.2297 91.8182 98.0424C91.8817 97.9971 91.9423 97.9501 92.0028 97.9032C92.0634 97.8563 92.1242 97.8091 92.1879 97.7637C91.5212 96.9576 90.8121 96.097 90.1515 95.2849L89.7697 95.5576C89.4606 95.1818 89.1879 94.8485 88.8848 94.4728C90.4788 93.3334 91.897 92.1031 93.303 90.7879H93.3091Z" fill="white"/>
<path d="M85.9394 101.794L86.2485 102.37L86.2727 102.364L86.6242 103.018C85.7091 103.497 84.7757 103.964 83.8303 104.382L83.4939 103.761C83.3833 103.556 83.2727 103.352 83.1576 103.139C83.2272 103.109 83.2969 103.077 83.3666 103.046C83.4363 103.014 83.506 102.982 83.5758 102.952C83.236 102.314 82.8642 101.627 82.5028 100.959C82.342 100.662 82.1833 100.368 82.0303 100.085C81.891 100.151 81.7517 100.212 81.6123 100.273C81.4969 100.06 81.3859 99.8552 81.275 99.6502C81.1647 99.4461 81.0543 99.242 80.9394 99.0303C81.8848 98.6121 82.8242 98.1576 83.7394 97.6788C83.7394 97.6788 84.3091 98.7334 84.4121 98.9212C84.3091 98.9758 84.0606 99.1031 84.0606 99.1031L84.5697 100.049L84.6485 100.012C85.0606 99.8 85.4727 99.5758 85.8788 99.3515L85.9515 99.3091L85.4363 98.3576L85.0909 98.5455C84.9879 98.3576 84.4242 97.3152 84.4242 97.3152C85.3038 96.8311 86.1604 96.2838 87.0108 95.7404L87.0788 95.697C87.1939 95.9091 87.303 96.1106 87.4121 96.3121C87.5212 96.5137 87.6303 96.7152 87.7454 96.9273C87.6182 97.0182 87.5091 97.0909 87.3636 97.1818C87.6128 97.6437 87.8772 98.1345 88.1415 98.6252L88.144 98.6299C88.4061 99.1164 88.6681 99.6027 88.9151 100.061C89.0424 99.9818 89.1697 99.9031 89.297 99.8182C89.4823 100.165 89.6599 100.491 89.8422 100.827L89.9757 101.073C89.103 101.63 88.2121 102.164 87.303 102.661L86.6303 101.418L86.9757 101.23L86.4424 100.242L86.3636 100.285C85.9576 100.509 85.5454 100.733 85.1333 100.945L85.0545 100.982L85.5939 101.976L85.6667 101.939C85.7091 101.915 85.7561 101.891 85.803 101.867C85.8499 101.843 85.8971 101.818 85.9394 101.794Z" fill="white"/>
<path d="M33.6121 25.0788C33.6121 25.0788 33.9636 24.7576 34.1333 24.6182C33.6242 24.1576 33.1515 23.7334 32.6364 23.2788C31.303 24.4303 30.0242 25.697 28.8121 26.9697C29.0824 27.5133 29.3435 28.0371 29.6055 28.5625L29.6061 28.5637C29.8667 29.0864 30.1281 29.6107 30.4 30.1576C30.4091 30.1727 30.4167 30.1894 30.4242 30.2061C30.4318 30.2227 30.4394 30.2394 30.4485 30.2546C30.4333 30.2485 30.4167 30.2424 30.4 30.2364C30.3833 30.2303 30.3667 30.2243 30.3515 30.2182C29.497 29.8909 28.697 29.5875 27.8723 29.2748L27.0364 28.9576C25.8909 30.3152 24.7758 31.7273 23.7576 33.194C24.0978 33.5017 24.419 33.7879 24.7484 34.0813C24.9118 34.2268 25.0778 34.3747 25.2485 34.5273L25.3593 34.3708C25.4911 34.1847 25.6453 33.9669 25.6545 33.9576C25.6616 33.9646 26.86 35.038 27.8626 35.9359L27.8829 35.9541C28.5953 36.5922 29.2035 37.1369 29.2061 37.1394C29.2039 37.1436 29.1702 37.1928 29.122 37.2629C29.0318 37.3941 28.8911 37.5989 28.8121 37.7212C29.2147 38.0855 29.6097 38.4384 30.0122 38.7979L30.3333 39.0849C30.9636 38.1394 31.6303 37.2182 32.3273 36.3212C32.1339 36.1484 31.9449 35.9781 31.7569 35.8088C31.444 35.5269 31.1339 35.2476 30.8121 34.9637C30.7566 35.0368 30.6738 35.1447 30.5956 35.2465C30.4859 35.3892 30.3853 35.5202 30.3818 35.5273C30.3697 35.5152 28.0061 33.394 26.8485 32.3576C26.8611 32.3414 26.8736 32.3247 26.8864 32.3078C26.9164 32.2679 26.9479 32.2261 26.9818 32.1879C29.1757 33.0303 31.3879 33.8849 33.6121 34.7515C33.8909 34.4243 34.1697 34.1031 34.4606 33.7818C33.3454 31.6424 32.2485 29.5273 31.1636 27.4182L31.3151 27.2667C31.7396 27.6469 32.3236 28.169 32.8947 28.6795L32.8969 28.6815C33.8908 29.5699 34.8446 30.4226 34.8485 30.4303C34.8362 30.4426 34.509 30.7698 34.3576 30.9273C34.6121 31.1576 34.8621 31.3818 35.112 31.606C35.3619 31.8301 35.6123 32.0547 35.8667 32.2849C36.9333 31.2 38.0485 30.1637 39.2121 29.1818C38.703 28.7212 38.2121 28.2788 37.697 27.8243C37.602 27.9023 37.4502 28.0334 37.3327 28.1348C37.2402 28.2146 37.169 28.2761 37.1636 28.2788C37.1515 28.2667 33.6182 25.1031 33.6061 25.097L33.6121 25.0788Z" fill="white"/>
<path d="M48.9636 16.2849C48.7576 16.3576 48.3091 16.5273 48.3091 16.5273L48.3151 16.5334L50.4848 20.7818C50.4913 20.7786 50.6211 20.7337 50.7719 20.6815C50.9029 20.6362 51.0497 20.5853 51.1454 20.5515C51.2999 20.8575 51.4529 21.1574 51.6059 21.4574C51.759 21.7574 51.9121 22.0575 52.0667 22.3637C50.6242 22.8546 49.206 23.4182 47.8242 24.0485C47.5091 23.4364 47.2121 22.8485 46.903 22.2364L46.992 22.1959C47.2074 22.0979 47.5289 21.9515 47.5394 21.9515C47.5333 21.9394 46.0909 19.1152 45.3818 17.7273C45.3151 17.7515 45.2485 17.7818 45.1818 17.8121L45.2433 18.3821C45.4775 20.5517 45.7129 22.7327 45.9636 24.9394C45.5818 25.1334 45.2 25.3334 44.8242 25.5394C43.0606 23.9273 41.303 22.3334 39.5636 20.7576C39.5333 20.7758 39.5031 20.7955 39.4728 20.8151C39.4425 20.8348 39.4121 20.8546 39.3818 20.8728C40.0052 22.1087 41.2098 24.474 41.4791 25.0026L41.5333 25.1091C41.5454 25.1031 41.9515 24.8546 42.1394 24.7394C42.4185 25.2922 42.6877 25.8202 42.9694 26.3726L43.0606 26.5515C42.0909 27.1334 41.1333 27.7515 40.2061 28.4061C39.8909 27.794 39.5879 27.2 39.2788 26.5879C39.4606 26.4606 39.8424 26.194 39.8545 26.1879L37.6909 21.9394C37.6788 21.9515 37.303 22.2 37.1091 22.3273C36.7939 21.7152 36.5091 21.1576 36.2 20.5455C37.6788 19.5334 39.2182 18.6061 40.7757 17.7637C41.5213 18.4387 42.225 19.0719 42.9634 19.7363L43.4182 20.1455C43.4303 20.1576 43.4439 20.1697 43.4576 20.1818C43.4712 20.194 43.4848 20.2061 43.497 20.2182C43.4909 20.1818 43.4848 20.1455 43.4848 20.1091C43.4534 19.7765 43.4224 19.4511 43.3917 19.1292L43.3887 19.097C43.3081 18.2515 43.2298 17.4293 43.1515 16.5637C44.7454 15.8121 46.4 15.0909 48.0545 14.497C48.209 14.8029 48.3589 15.0967 48.5089 15.3905C48.6589 15.6844 48.8091 15.9789 48.9636 16.2849Z" fill="white"/>
<path d="M105.527 35.3273C104.988 35.7515 104.497 36.1273 103.933 36.5576V36.5455C103.882 36.4642 103.811 36.3509 103.742 36.2414L103.741 36.2404C103.63 36.0644 103.525 35.8984 103.521 35.8909C103.516 35.8962 102.855 36.4072 101.96 37.0997L101.954 37.1038C100.773 38.0169 99.1869 39.2438 98.1576 40.0424C97.6364 39.194 97.0545 38.3273 96.4848 37.5273C97.1697 35.4243 98.3879 31.4909 98.3879 31.4849C98.3879 31.4817 98.375 31.4673 98.3617 31.4525C98.3491 31.4385 98.3363 31.4241 98.3333 31.4182C98.3273 31.4243 95.8242 33.3697 95.8121 33.3758C95.8242 33.3879 96.1636 33.8 96.3212 33.994C95.9481 34.28 95.5948 34.5547 95.2362 34.8336C95.0706 34.9624 94.9038 35.0921 94.7333 35.2243C93.9758 34.297 93.1939 33.4 92.3636 32.5273L93.9576 31.2909C94.1333 31.4849 94.4788 31.8606 94.4909 31.8727C94.4969 31.8697 95.4201 31.1542 96.3497 30.4337L96.3701 30.4179C97.3063 29.6922 98.2424 28.9667 98.2485 28.9637C98.2424 28.9515 97.8848 28.5576 97.7151 28.3758C98.0805 28.0884 98.4348 27.8149 98.793 27.5384L98.7953 27.5366C98.9651 27.4055 99.1358 27.2737 99.3091 27.1394C100.267 28.1758 101.158 29.2303 102.012 30.3152C101.588 31.6944 100.799 34.1664 100.456 35.2382C100.353 35.5605 100.291 35.7576 100.291 35.7576C100.297 35.7637 100.339 35.8182 100.345 35.8303C100.352 35.8273 100.865 35.4292 101.378 35.0309C101.892 34.6322 102.406 34.2334 102.412 34.2303C102.406 34.2182 102.121 33.8061 101.982 33.6182C102.41 33.2816 102.815 32.9679 103.233 32.6438L103.564 32.3879C104.261 33.3334 104.903 34.3394 105.527 35.3273Z" fill="white"/>
<path d="M23.5394 37.4364C23.4038 37.6604 23.1707 38.0909 23.1358 38.1588L27.3757 40.2849C27.3818 40.2728 27.6485 39.7879 27.7818 39.5637C28.3821 39.8608 28.959 40.1521 29.5583 40.4548L29.5939 40.4728C28.7636 41.9394 28.0182 43.4182 27.3454 44.9697C26.7333 44.6667 26.1394 44.3697 25.5273 44.0606C25.5869 43.9114 25.7017 43.6613 25.7811 43.4881C25.8308 43.3798 25.8667 43.3017 25.8667 43.297L21.6242 41.1697C21.6182 41.1818 21.3818 41.6909 21.2848 41.9334C20.9787 41.7788 20.6861 41.6317 20.3936 41.4847L20.3909 41.4833C20.0995 41.3369 19.808 41.1904 19.503 41.0364C20.2 39.4909 20.9333 38.0121 21.7576 36.5455C22.3697 36.8485 22.9273 37.1273 23.5394 37.4364Z" fill="white"/>
<path d="M91.9273 29.4546C91.9394 29.4667 91.9818 29.5031 91.9818 29.5031H91.9576C92.0718 29.6015 92.1578 29.6795 92.2506 29.7636C92.3007 29.8089 92.3527 29.856 92.4121 29.9091C92.0121 30.4606 91.703 30.8849 91.297 31.4364C90.2 30.4424 89.0545 29.4546 87.8545 28.5576L88.9576 27.0485C89.0667 27.1273 89.4 27.3879 89.4 27.3879L90.3818 26.0546L88.4364 24.6303L87.4606 25.9697L87.5697 26.0485L87.5939 26.0667L87.7045 26.1445C87.7703 26.1909 87.85 26.2471 87.9212 26.297L87.3818 27.0303L86.8242 27.8C85.6121 26.9334 84.4424 26.1879 83.0364 25.3758C83.2394 25.1 83.4167 24.8561 83.5939 24.6121C83.7712 24.3682 83.9485 24.1243 84.1515 23.8485C84.2974 23.93 84.5284 24.0663 84.6551 24.141C84.7074 24.1718 84.7419 24.1922 84.7454 24.194C84.7484 24.188 85.4526 23.2259 86.1644 22.2533L86.1864 22.2232C86.9066 21.2392 87.6273 20.2546 87.6303 20.2485C87.6182 20.2424 87.2303 20.0121 87.0485 19.897C87.4485 19.3394 87.8303 18.8182 88.2364 18.2667C89.5273 19.0364 90.7757 19.8606 91.9939 20.7334L91.4061 21.5394L90.8909 22.2424C90.7454 22.1334 90.5394 21.9879 90.5394 21.9879L90.4363 21.9152L90.3576 22.0182C90.3454 22.0303 89.5333 23.1394 89.5333 23.1394L89.4545 23.2485L89.5636 23.3273L89.7697 23.4788C90.2242 23.8061 91.297 24.594 91.297 24.594L91.4061 24.6727L91.4848 24.5637L91.897 24L92.303 23.4424L92.3818 23.3394L92.2788 23.2606L92.2545 23.2424C92.2181 23.217 92.1532 23.1674 92.0809 23.1121C92.033 23.0755 91.9817 23.0363 91.9333 23C92.1087 22.7582 92.278 22.5284 92.4472 22.2987L92.4485 22.297C92.6063 22.0866 92.7603 21.8762 92.9165 21.6628L93.0424 21.4909C94.2485 22.394 95.4 23.3394 96.5151 24.3334C96.1091 24.8909 95.7273 25.4121 95.3273 25.9576C95.1697 25.8121 94.8303 25.5091 94.8182 25.5031C94.8061 25.5152 91.9333 29.4424 91.9273 29.4546Z" fill="white"/>
<path d="M73.9091 12.8303C73.9091 12.8303 72.5273 12.5576 71.7576 12.4303C70.8606 12.2788 69.4788 12.1152 69.4788 12.1152L69.1879 14.097L70.2848 14.2606L69.497 19.4424C69.3333 20.5455 68.9454 20.7455 68.5091 20.7515C68.1333 20.7515 67.6303 20.5091 67.6303 20.5091L67.3454 22.394C67.3454 22.394 68.3454 22.994 69.3151 23.1394C70.4242 23.3091 70.9454 23.1515 71.5818 22.6788C72.3758 22.0909 72.6545 21.1152 72.8121 20.0727L73.903 12.8364L73.9091 12.8303Z" fill="white"/>
<path d="M17.5879 46.4243C17.7333 45.9212 18.2121 44.4 18.2121 44.4L18.2182 44.4061L25.2303 46.4606C26.2364 46.7576 27.1697 47.1697 27.6424 48.0364C28.0182 48.7334 28.103 49.2667 27.7879 50.3455C27.5151 51.2849 26.7879 52.194 26.7879 52.194L24.9576 51.6546C24.9576 51.6546 25.2727 51.1879 25.3212 50.8121C25.3757 50.3758 25.2242 49.9697 24.1576 49.6546L19.1333 48.1758L18.8182 49.2424L16.9515 48.7031C16.9515 48.7031 17.4182 46.994 17.5879 46.4243Z" fill="white"/>
<path d="M28.0848 65.4122L28.703 67.2667L28.697 67.2789L25.5273 69.5819C25.3636 69.697 25.303 69.9031 25.3636 70.091L26.5818 73.8425L25.0242 74.9819L21.8242 72.6546C21.6667 72.5395 21.4485 72.5395 21.2909 72.6546L18.1091 74.9637L16.5394 73.8122L17.7515 70.0788C17.8121 69.891 17.7454 69.6849 17.5879 69.5698L14.4 67.2546L15.0182 65.4122H18.9454C19.1394 65.4122 19.3151 65.2849 19.3758 65.097L20.5818 61.3879H22.5454L23.7697 65.1637C23.8182 65.3091 23.9576 65.4122 24.1151 65.4122H28.0848Z" fill="white"/>
<path d="M112.982 65.4122L113.6 67.2667L113.594 67.2789L110.424 69.5819C110.261 69.697 110.2 69.9031 110.261 70.091L111.479 73.8425L109.921 74.9819L106.721 72.6546C106.564 72.5395 106.345 72.5395 106.188 72.6546L103.006 74.9637L101.436 73.8122L102.648 70.0788C102.709 69.891 102.642 69.6849 102.485 69.5698L99.297 67.2546L99.9151 65.4122H103.842C104.036 65.4122 104.212 65.2849 104.273 65.097L105.479 61.3879H107.442L108.667 65.1637C108.715 65.3091 108.855 65.4122 109.012 65.4122H112.982Z" fill="white"/>
<path d="M24.4606 69.9151L25.6364 73.5272H25.6485L25.0364 73.9757L21.9576 71.7393C21.7273 71.5697 21.4121 71.5697 21.1818 71.7393L18.1212 73.9636L17.497 73.509L18.6667 69.9151C18.7576 69.6424 18.6606 69.3454 18.4303 69.1757L15.3636 66.9515L15.6061 66.2242H19.3879C19.6727 66.2242 19.9212 66.0424 20.0121 65.7696L21.1697 62.2H21.9576L23.1151 65.7696C23.2 66.0424 23.4545 66.2242 23.7394 66.2242H27.497L27.7455 66.9636L24.697 69.1757C24.4667 69.3454 24.3697 69.6424 24.4606 69.9151Z" fill="#E4002B"/>
<path d="M109.358 69.9151L110.533 73.5272H110.545L109.933 73.9757L106.855 71.7393C106.624 71.5697 106.309 71.5697 106.079 71.7393L103.018 73.9636L102.394 73.509L103.564 69.9151C103.655 69.6424 103.558 69.3454 103.327 69.1757L100.261 66.9515L100.503 66.2242H104.285C104.57 66.2242 104.818 66.0424 104.909 65.7696L106.067 62.2H106.855L108.012 65.7696C108.097 66.0424 108.352 66.2242 108.636 66.2242H112.394L112.642 66.9636L109.594 69.1757C109.364 69.3454 109.267 69.6424 109.358 69.9151Z" fill="#E4002B"/>
</g>
<defs>
<filter id="filter0_d_8_13312" x="0" y="0" width="128" height="128" filterUnits="userSpaceOnUse" color-interpolation-filters="sRGB">
<feFlood flood-opacity="0" result="BackgroundImageFix"/>
<feColorMatrix in="SourceAlpha" type="matrix" values="0 0 0 0 0 0 0 0 0 0 0 0 0 0 0 0 0 0 127 0" result="hardAlpha"/>
<feOffset dy="4"/>
<feGaussianBlur stdDeviation="2"/>
<feComposite in2="hardAlpha" operator="out"/>
<feColorMatrix type="matrix" values="0 0 0 0 0 0 0 0 0 0 0 0 0 0 0 0 0 0 0.15 0"/>
<feBlend mode="normal" in2="BackgroundImageFix" result="effect1_dropShadow_8_13312"/>
<feBlend mode="normal" in="SourceGraphic" in2="effect1_dropShadow_8_13312" result="shape"/>
</filter>
</defs>
</svg>
