<svg width="56" height="56" viewBox="0 0 56 56" fill="none" xmlns="http://www.w3.org/2000/svg">
<path d="M24.4661 10H19.8175L15.304 22.3784L10.7904 10H5.6553L12.7364 28H17.1958L24.4661 10Z" fill="black"/>
<path d="M31.1967 28V10H26.4129V28H31.1967Z" fill="black"/>
<path d="M50.3447 16.1351V15.4324C50.3447 12.1081 48.1285 10 44.0204 10H34.8852V28H39.669V21.5405H44.0204C48.1285 21.5405 50.3447 19.4324 50.3447 16.1351ZM45.5879 16.5135C45.5879 17.8108 44.8852 18.5135 43.2366 18.5135H39.669V13.5676H43.2096C44.8852 13.5676 45.5879 14.2973 45.5879 15.5676V16.5135Z" fill="black"/>
<path d="M16.949 45.6174L15.9501 42.5515C15.8757 42.3231 15.9554 42.068 16.152 41.9245L18.7397 40.0489L18.5271 39.4166H15.339C15.0946 39.4166 14.8821 39.2625 14.8077 39.0287L13.8194 36H13.1552L12.1669 39.0287C12.0925 39.2572 11.8799 39.4166 11.6355 39.4166H8.42616L8.21893 40.0329L10.8225 41.9245C11.0191 42.068 11.0988 42.3177 11.0245 42.5515L10.0361 45.6015L10.5675 45.9894L13.1605 44.1031C13.3571 43.9596 13.6228 43.9596 13.8194 44.1031L16.4336 46L16.949 45.6174Z" fill="#E4002B"/>
<path d="M31.4697 45.6174L30.4708 42.5515C30.3964 42.3231 30.4761 42.068 30.6727 41.9245L33.2604 40.0489L33.0478 39.4166H29.8597C29.6153 39.4166 29.4028 39.2625 29.3284 39.0287L28.3401 36H27.6759L26.6876 39.0287C26.6132 39.2572 26.4007 39.4166 26.1562 39.4166H22.9469L22.7397 40.0329L25.3433 41.9245C25.5399 42.068 25.6196 42.3177 25.5452 42.5515L24.5569 45.6015L25.0882 45.9894L27.6812 44.1031C27.8778 43.9596 28.1435 43.9596 28.3401 44.1031L30.9543 46L31.4697 45.6174Z" fill="#E4002B"/>
<path d="M44.9915 42.5515L45.9904 45.6174L45.475 46L42.8608 44.1031C42.6642 43.9596 42.3985 43.9596 42.2019 44.1031L39.6089 45.9894L39.0776 45.6015L40.0659 42.5515C40.1403 42.3177 40.0606 42.068 39.864 41.9245L37.2604 40.0329L37.4676 39.4166H40.677C40.9214 39.4166 41.1339 39.2572 41.2083 39.0287L42.1966 36H42.8608L43.8491 39.0287C43.9235 39.2625 44.136 39.4166 44.3805 39.4166H47.5686L47.7811 40.0489L45.1934 41.9245C44.9968 42.068 44.9171 42.3231 44.9915 42.5515Z" fill="#E4002B"/>
</svg>
